<?xml version="1.0" encoding="UTF-8" standalone="no"?>
<svg
   xmlns:dc="http://purl.org/dc/elements/1.1/"
   xmlns:cc="http://creativecommons.org/ns#"
   xmlns:rdf="http://www.w3.org/1999/02/22-rdf-syntax-ns#"
   xmlns:svg="http://www.w3.org/2000/svg"
   xmlns="http://www.w3.org/2000/svg"
   xmlns:sodipodi="http://sodipodi.sourceforge.net/DTD/sodipodi-0.dtd"
   xmlns:inkscape="http://www.inkscape.org/namespaces/inkscape"
   version="1.1"
   id="svg62"
   width="960"
   height="640"
   viewBox="0 0 959.99998 639.99999"
   sodipodi:docname="daz82zi-5281c7aa-7896-4c13-89f4-65b45e422e2e.svg"
   inkscape:version="1.0.1 (3bc2e813f5, 2020-09-07)"
   inkscape:export-filename="/home/morgan/Stiahnuté/x_wing1.png"
   inkscape:export-xdpi="96"
   inkscape:export-ydpi="96">
  <metadata
     id="metadata68">
    <rdf:RDF>
      <cc:Work
         rdf:about="">
        <dc:format>image/svg+xml</dc:format>
        <dc:type
           rdf:resource="http://purl.org/dc/dcmitype/StillImage" />
        <dc:title />
      </cc:Work>
    </rdf:RDF>
  </metadata>
  <defs
     id="defs66" />
  <sodipodi:namedview
     pagecolor="#dfc348"
     bordercolor="#666666"
     borderopacity="1"
     objecttolerance="10"
     gridtolerance="10"
     guidetolerance="10"
     inkscape:pageopacity="1"
     inkscape:pageshadow="2"
     inkscape:window-width="1920"
     inkscape:window-height="1026"
     id="namedview64"
     showgrid="false"
     inkscape:zoom="0.64598926"
     inkscape:cx="180.52537"
     inkscape:cy="213.81841"
     inkscape:window-x="0"
     inkscape:window-y="28"
     inkscape:window-maximized="1"
     inkscape:current-layer="g70"
     inkscape:document-rotation="0" />
  <g
     inkscape:groupmode="layer"
     inkscape:label="Image"
     id="g70">
    <path
       style="fill:#000008;fill-opacity:1;stroke:none;stroke-width:0.440107;stroke-opacity:1"
       d="m 0.04023,631.2232 c 0.03593,-7.83438 0.10198,-8.53852 0.615348,-6.55738 1.832878,7.07319 9.170884,13.24215 17.584425,14.78302 2.356535,0.43158 1.519031,0.48715 -7.800001,0.51736 L 3e-6,640 Z m 462.03884,8.20274 c 8.24083,-1.68019 16.03011,-8.31172 17.24112,-14.67865 0.44596,-2.3445 0.97336,-2.44265 1.3312,-0.24769 1.06341,6.52216 9.16276,13.4061 17.58863,14.94924 2.19794,0.40253 -0.81633,0.48346 -18,0.48301 -17.53459,0 -20.26702,-0.0765 -18.16095,-0.50591 z m 479.99996,0 c 3.98907,-0.81331 7.86307,-2.68065 10.95627,-5.28106 3.0932,-2.60042 5.3144,-5.85727 6.2819,-9.21086 0.5434,-1.88404 0.6051,-1.26104 0.642,6.49096 l 0.041,8.57502 -10.2,-0.0343 c -9.22097,-0.0311 -9.96203,-0.0829 -7.72096,-0.53977 z M 17.396041,632.68596 c -3.101483,-1.00203 -6.699571,-3.86699 -8.29877,-6.60778 l -1.177268,-2.01766 v -16.343 -16.34301 l 1.174849,-2.0071 c 1.498489,-2.56004 4.432503,-5.02662 7.477667,-6.28642 l 2.387484,-0.98767 H 239.99999 461.04003 l 2.39998,0.98969 c 3.35686,1.38432 6.66983,4.36443 7.88346,7.09141 0.94439,2.12202 0.99655,3.04007 0.99655,17.5431 0,14.68012 -0.0422,15.39859 -1.03381,17.62683 -1.39496,3.1344 -4.99068,6.15729 -8.71906,7.33002 l -2.76314,0.86914 -219.94201,-0.0208 C 20.345884,633.50182 19.915116,633.49997 17.396041,632.68614 Z m 479.999959,0 c -3.10147,-1.00203 -6.69953,-3.86699 -8.29875,-6.60778 l -1.17724,-2.01766 v -16.343 -16.34301 l 1.17482,-2.0071 c 1.49854,-2.56004 4.43254,-5.02662 7.47771,-6.28642 l 2.38745,-0.98767 h 221.03998 221.03999 l 2.40004,0.98969 c 3.3568,1.38432 6.6698,4.36443 7.8834,7.09141 0.9444,2.12202 0.9966,3.04007 0.9966,17.5431 0,14.68012 -0.042,15.39859 -1.0338,17.62683 -1.395,3.1344 -4.9907,6.15729 -8.71908,7.33002 l -2.76311,0.86914 -219.94199,-0.0208 c -219.51607,-0.0208 -219.94688,-0.0227 -222.46598,-0.83652 z M 0.08046,568.7768 c 0,-19.77672 0.10535,-23.80531 0.575118,-21.99244 1.88789,7.28547 9.574462,13.55092 18.27258,14.89428 4.066185,0.62803 438.854742,0.62337 442.448262,-0.005 8.51115,-1.48758 16.69467,-8.24102 17.94377,-14.80812 0.44596,-2.34453 0.97336,-2.44267 1.3312,-0.24769 1.09818,6.73556 9.5688,13.71565 18.27681,15.0605 4.0662,0.62799 438.85463,0.62337 442.44815,-0.005 8.48875,-1.48366 15.89115,-7.51644 17.94075,-14.62141 0.5027,-1.7425 0.6014,1.85103 0.6018,21.92601 0,19.61905 -0.1045,23.60417 -0.5745,21.79067 -1.8879,-7.28546 -9.5744,-13.55095 -18.27258,-14.89428 -4.0379,-0.62364 -438.10572,-0.62364 -442.14362,0 -8.71359,1.34572 -17.17863,8.32488 -18.27828,15.06982 -0.16524,1.01314 -0.45763,1.84209 -0.64987,1.84209 -0.19224,0 -0.48467,-0.82895 -0.64988,-1.84209 -1.09969,-6.74494 -9.56473,-13.7241 -18.27831,-15.06982 -4.0379,-0.62364 -438.105802,-0.62364 -442.143702,0 -8.698118,1.34333 -16.38469,7.60882 -18.27258,14.89428 C 0.18581,592.58137 0.08046,588.55279 0.08046,568.77607 Z m 17.315581,-13.97229 c -3.101483,-1.00207 -6.699571,-3.867 -8.29877,-6.60778 L 7.920003,546.17906 7.790475,518.03279 c -0.07124,-15.48046 -0.04592,-28.14629 0.05626,-28.14629 0.102182,0 11.25055,-2.26986 24.774151,-5.04414 13.523603,-2.77426 24.893463,-5.04412 25.266353,-5.04412 0.57978,0 0.66022,5.15591 0.55537,35.59569 l -0.12261,35.59576 -3.6,2.31325 -3.6,2.3133 H 35.520002 c -14.504122,0 -15.777305,-0.0554 -18.123961,-0.81361 z m 38.763955,0.70217 c 0,-0.0854 0.54,-0.45279 1.20001,-0.81633 1.14366,-0.63 1.2,-0.6227 1.2,0.15532 0,0.60178 -0.31545,0.81636 -1.2,0.81636 -0.66001,0 -1.20001,-0.0699 -1.20001,-0.15535 z m 5.28001,-1.5827 v -1.73804 l 37.76251,-23.17998 c 20.769374,-12.749 39.021374,-23.95385 40.560014,-24.89962 l 2.79749,-1.71963 v 16.24674 16.24676 l -10.59329,10.3909 -10.593,10.39092 H 91.407826 61.441946 v -1.73805 z m 64.873144,0.62836 c 0.66704,-0.61035 4.4968,-4.33293 8.51058,-8.27241 l 7.29777,-7.16264 H 188.66075 235.2 v -1.2106 -1.21059 h -44.88001 c -31.74926,0 -44.87997,-0.12721 -44.87997,-0.43479 0,-0.23912 1.998,-2.41265 4.43999,-4.83008 l 4.43999,-4.3953 40.44002,-0.0121 40.43998,-0.0121 v -1.21059 -1.2106 h -38.87999 -38.88 v -41.16015 -41.16012 h 6.89418 6.89418 l 0.56873,4.33795 c 0.3128,2.38586 0.99795,5.87703 1.52251,7.75808 6.49307,23.28288 30.19536,41.10264 58.40038,43.90644 l 3.48001,0.34593 v -1.28375 -1.28374 l -3.57861,-0.27263 c -6.20853,-0.47297 -14.48384,-2.56945 -20.95261,-5.30805 -19.98238,-8.45983 -33.49015,-24.7973 -35.91846,-43.44285 -0.28066,-2.15555 -0.5103,-4.10763 -0.5103,-4.33833 0,-0.28583 9.70945,-0.41945 30.47997,-0.41945 H 235.2 v -1.21059 -1.21059 h -30.48001 c -20.77052,0 -30.47997,-0.13359 -30.47997,-0.41941 0,-0.23071 0.22964,-2.18279 0.5103,-4.33798 2.29997,-17.66003 14.39784,-33.13559 32.83722,-42.00524 7.33986,-3.5306 16.81934,-6.17959 24.16888,-6.7538 3.4335,-0.26827 3.44358,-0.27262 3.44358,-1.47738 v -1.20829 l -3.49502,0.26627 c -15.45487,1.17736 -31.99964,8.49542 -43.14895,19.08557 -9.43607,8.96287 -15.11618,19.98225 -16.75893,32.51231 l -0.56873,4.33798 h -6.89418 -6.89418 V 398.68856 357.5284 h 38.88 H 235.2 v -1.21059 -1.21059 l -40.43998,-0.005 -40.44002,-0.005 -14.4396,-14.21965 -14.4396,-14.21966 57.27959,-0.10254 c 31.50378,-0.0564 83.07446,-0.0564 114.6015,0 l 57.32186,0.10254 -14.48186,14.21921 -14.4819,14.21922 -40.43999,0.005 -40.43998,0.005 v 1.21059 1.2106 h 38.87999 38.88 v 41.16012 41.16015 h -6.90361 -6.90361 l -0.33048,-3.12708 c -1.47964,-14.00248 -8.44474,-26.68418 -19.98306,-36.38443 -10.82081,-9.09687 -26.11843,-15.35555 -40.14425,-16.42404 l -3.49498,-0.26628 v 1.20829 c 0,1.20476 0.0101,1.20908 3.44354,1.47738 7.34958,0.57422 16.82906,3.22318 24.16889,6.75378 18.05497,8.6847 29.92802,23.47164 32.65052,40.66359 0.37307,2.35573 0.68252,4.69175 0.68767,5.19112 l 0.009,0.90794 h -30.48001 -30.48001 v 1.21059 1.2106 h 30.48001 c 28.71007,0 30.47976,0.0409 30.47605,0.70617 -0.0119,2.13673 -1.10362,8.39595 -1.95307,11.19798 -3.87886,12.79442 -12.09769,23.22195 -24.46153,31.03515 -9.13763,5.7745 -21.18974,9.88654 -31.06145,10.59795 l -3.48001,0.25077 v 1.2802 1.28021 l 3.48001,-0.34593 c 32.37214,-3.21799 57.20173,-25.0474 60.14232,-52.87515 l 0.33048,-3.12735 h 6.90361 6.90358 v 41.16015 41.16016 h -38.88 -38.88 v 1.21059 1.21059 h 40.45014 40.4501 l 4.30988,4.27181 c 2.37046,2.34953 4.37973,4.5286 4.46508,4.84238 0.13292,0.4886 -6.2978,0.57055 -44.75998,0.57055 h -44.91518 v 1.21446 1.21451 l 46.5571,-0.0118 46.55711,-0.0118 7.27326,7.17051 c 4.00028,3.94381 7.822,7.66993 8.49268,8.28028 l 1.21943,1.10969 H 239.99999 125.10042 l 1.21273,-1.10969 z m 221.72183,-9.28123 -10.59329,-10.3909 v -16.2447 -16.24477 l 4.45169,2.72647 c 2.44839,1.49953 20.70041,12.69911 40.55995,24.88794 l 36.10862,22.16153 v 1.74768 1.74767 h -29.9659 -29.96591 z m 73.40502,9.57456 c 0,-0.77802 0.0564,-0.78532 1.19999,-0.15532 0.65999,0.36354 1.19999,0.73089 1.19999,0.81633 0,0.0855 -0.54,0.15535 -1.19999,0.15535 -0.88456,0 -1.19999,-0.21458 -1.19999,-0.81636 z m 3.88156,-1.60313 -3.88156,-2.41952 v -35.51238 c 0,-30.82202 0.0923,-35.5124 0.69894,-35.5124 0.38441,0 11.75969,2.26986 25.27837,5.04412 13.51872,2.77428 24.65219,5.04414 24.74107,5.04414 0.0889,0 0.16161,12.43203 0.16161,27.62672 0,27.29627 -0.0122,27.65452 -1.03378,29.94967 -1.39496,3.13438 -4.99072,6.1573 -8.71906,7.33002 -2.61665,0.82306 -3.57422,0.86912 -18.06357,0.86912 h -15.30043 z m 72.07444,1.56197 c -3.10147,-1.00207 -6.69953,-3.867 -8.29875,-6.60778 l -1.17724,-2.01767 V 441.05927 335.93948 l 1.17482,-2.00713 c 1.49854,-2.56004 4.43254,-5.02662 7.47771,-6.2864 l 2.38745,-0.98766 h 221.03998 221.03999 l 2.40004,0.98969 c 3.3568,1.38431 6.6698,4.3644 7.8834,7.09138 l 0.9966,2.23923 v 104.08068 104.08071 l -1.0338,2.32291 c -1.395,3.13438 -4.9907,6.1573 -8.71908,7.33002 l -2.76311,0.86912 -219.94199,-0.0208 c -219.51607,-0.0208 -219.94688,-0.0227 -222.46598,-0.83652 z m -435.838654,-40.92349 0.12266,-34.98976 40.052844,-8.2224 c 22.02905,-4.52232 40.22705,-8.22244 40.43999,-8.22244 0.21294,0 0.38628,8.30769 0.3852,18.46151 l -0.004,18.46153 -40.11032,24.61542 c -22.060674,13.53844 -40.312984,24.67623 -40.560694,24.75062 -0.27887,0.0837 -0.40366,-13.18844 -0.32771,-34.85448 z m 316.089164,10.18088 -40.19355,-24.69244 -0.006,-18.46153 c -0.005,-14.51386 0.12182,-18.45715 0.59353,-18.44108 0.32998,0.0112 18.52798,3.7078 40.44004,8.21451 l 39.83998,8.19407 0.12265,34.96328 c 0.0675,19.22985 -0.0405,34.95257 -0.23998,34.93947 -0.19947,-0.0133 -18.44975,-11.13546 -40.55619,-24.71628 z m -232.17827,-7.74414 -0.006,-15.7377 4.42901,-2.68476 4.42905,-2.68483 0.12628,13.928 0.12629,13.92795 -3.48627,3.42892 c -1.91747,1.88592 -3.96454,3.90846 -4.54904,4.49454 l -1.06275,1.06559 -0.006,-15.73771 z m 184.42666,11.19799 -4.42065,-4.33795 -0.0173,-14.06055 -0.0173,-14.06055 2.52,1.52583 c 1.386,0.83922 3.438,2.07157 4.56001,2.73848 l 2.03998,1.21266 v 15.66001 c 0,8.613 -0.055,15.66005 -0.12222,15.66005 -0.0672,0 -2.11151,-1.95208 -4.54288,-4.33798 z M 145.44002,479.67107 v -17.93261 l 4.0626,-0.85661 c 2.23445,-0.47114 4.28893,-0.85662 4.56552,-0.85662 0.34416,0 0.46328,5.05708 0.37739,16.02359 l -0.12553,16.02349 -2.39998,1.52953 c -1.32001,0.84124 -3.31801,2.08582 -4.44002,2.76572 l -2.03998,1.2362 z M 329.88,494.7079 l -4.43999,-2.80455 v -15.93902 c 0,-10.72816 0.16258,-15.9391 0.49738,-15.9391 0.27353,0 2.32553,0.38552 4.55997,0.85662 l 4.06264,0.85661 v 17.90755 c 0,9.84919 -0.054,17.89831 -0.11999,17.88698 -0.066,-0.0112 -2.11802,-1.28262 -4.56001,-2.82509 z M 7.680002,441.03981 c 0,-44.04333 0.04337,-46.42974 0.840002,-46.22349 0.461999,0.11964 11.099998,2.31662 23.639996,4.88221 12.540006,2.56557 23.611166,4.84787 24.602576,5.07174 l 1.80258,0.40706 -0.12258,35.95046 -0.12258,35.95046 -23.999992,4.92236 c -13.200001,2.70734 -24.594,5.0479 -25.320001,5.20125 l -1.320001,0.27883 z M 446.64,482.23556 l -24.96002,-5.15552 -0.12255,-35.95137 -0.12258,-35.95134 1.80256,-0.40491 c 0.99144,-0.22272 12.06259,-2.50402 24.60258,-5.0696 12.53998,-2.56558 23.17798,-4.7635 23.64001,-4.88432 0.79664,-0.20831 0.83999,2.1768 0.83999,46.21359 0,25.5383 -0.162,46.41652 -0.36,46.39615 -0.19797,-0.0206 -11.592,-2.35711 -25.31999,-5.19268 z M 61.440006,441.05927 c 0,-29.06131 0.11068,-35.10719 0.64271,-35.10719 0.64146,0 78.739694,15.96403 79.877294,16.32766 0.468,0.14962 0.60001,4.27339 0.60001,18.74306 0,10.20321 -0.16906,18.6391 -0.37562,18.74645 -0.52967,0.2752 -79.261674,16.39724 -80.075954,16.39724 -0.56614,0 -0.66844,-5.3733 -0.66844,-35.10722 z M 377.619,468.09063 c -21.32958,-4.39591 -39.09778,-8.09476 -39.48485,-8.21969 -0.60681,-0.19575 -0.68655,-2.79834 -0.57895,-18.89659 l 0.12481,-18.66961 39.60002,-8.15576 c 21.78,-4.48564 39.978,-8.165 40.43998,-8.17629 0.79377,-0.0193 0.84003,1.91238 0.84003,35.08658 v 35.10719 l -1.08,-0.0416 c -0.594,-0.023 -18.53147,-3.63829 -39.86104,-8.03425 z M 145.44002,441.05927 v -18.17423 l 1.08,0.2281 c 0.594,0.12554 2.592,0.54915 4.43999,0.94136 l 3.35999,0.71319 v 16.29158 16.29161 l -3.35999,0.71317 c -1.84799,0.39223 -3.84599,0.81581 -4.43999,0.94135 l -1.08,0.22816 z m 184.31999,17.19108 -4.08002,-0.89063 v -16.29603 -16.296 l 3.36002,-0.71319 c 1.84799,-0.39221 3.84599,-0.81582 4.43999,-0.94136 l 1.08,-0.2281 v 18.16655 c 0,9.99162 -0.162,18.1492 -0.36,18.12798 -0.198,-0.0215 -2.196,-0.43941 -4.43999,-0.92922 z M 149.35164,421.26853 c -1.94062,-0.40492 -3.61689,-0.81055 -3.72503,-0.90147 -0.10818,-0.091 -0.14044,-8.16002 -0.0716,-17.93132 l 0.12503,-17.76594 4.44002,2.77269 4.43999,2.77267 v 15.93909 c 0,14.92794 -0.0533,15.93624 -0.83999,15.89472 -0.46202,-0.0245 -2.42777,-0.37562 -4.36838,-0.78044 z M 325.44001,406.15428 V 390.2152 l 4.43999,-2.77269 4.43999,-2.77268 0.12506,17.76593 c 0.0688,9.77128 0.041,17.83657 -0.0616,17.92286 -0.21586,0.18146 -7.82114,1.73472 -8.49384,1.73472 -0.27187,0 -0.44957,-6.30068 -0.44957,-15.93906 z m -224.16,5.27534 -39.600004,-8.15863 -0.12266,-35.01162 c -0.0722,-20.61942 0.0549,-34.95601 0.30922,-34.87633 0.23753,0.0744 18.48804,11.21214 40.556674,24.75063 l 40.12479,24.61537 0.006,18.46154 c 0.006,17.33118 -0.0454,18.45897 -0.83401,18.4196 -0.46199,-0.023 -18.65999,-3.71332 -40.43999,-8.20056 z m 236.17187,-10.21904 0.0119,-18.46154 40.12868,-24.61537 c 22.07073,-13.53849 40.31859,-24.67624 40.55075,-24.75063 0.24142,-0.0774 0.36965,14.85331 0.29949,34.87573 l -0.12265,35.01103 -39.84001,8.18367 c -21.91203,4.50105 -40.11003,8.19154 -40.44001,8.20113 -0.47174,0.0136 -0.59745,-3.92934 -0.58813,-18.44402 z M 34.080002,397.65014 C 20.748001,394.8991 9.349721,392.55025 8.750483,392.43046 l -1.089518,-0.21785 0.129521,-28.13653 0.129517,-28.1366 1.174849,-2.00713 c 1.498489,-2.56004 4.432503,-5.02662 7.477667,-6.2864 2.367198,-0.97927 2.522517,-0.98866 18.281422,-1.10381 l 15.893935,-0.11616 3.90606,2.43477 3.90607,2.43478 v 35.71414 c 0,19.64281 -0.054,35.698 -0.12,35.67826 -0.066,-0.0197 -11.028,-2.28675 -24.360004,-5.03779 z M 421.44004,366.99703 v -35.7015 l 3.90607,-2.43478 3.90603,-2.43477 15.89397,0.11616 c 15.76558,0.11521 15.91329,0.12414 18.2939,1.10584 3.35686,1.38431 6.66983,4.3644 7.88346,7.09138 0.97308,2.18651 0.99655,2.88954 0.99655,29.85827 v 27.61904 l -1.08,0.2153 c -6.76627,1.34894 -48.75102,9.96051 -49.20001,10.0915 -0.47703,0.13919 -0.59997,-7.14093 -0.59997,-35.52644 z m -271.56003,17.24377 -4.43999,-2.67835 0.0173,-15.74968 0.0173,-15.7497 1.06272,1.0656 c 0.5845,0.58604 2.63156,2.60861 4.54903,4.49447 l 3.48628,3.42894 -0.12629,13.93357 -0.12629,13.93352 -4.43999,-2.67837 z m 175.56,-11.20497 v -13.9904 l 4.1607,-4.08766 c 2.28841,-2.24819 4.34041,-4.26014 4.56001,-4.47099 0.2196,-0.21085 0.39928,6.69219 0.39928,15.34012 v 15.72342 l -3.93206,2.41528 c -2.16263,1.32835 -4.21463,2.56047 -4.55998,2.73791 -0.51257,0.26345 -0.62795,-2.24777 -0.62795,-13.66768 z m -223.44,-18.14713 -40.320004,-24.78286 -0.1463,-1.82466 -0.1463,-1.82467 h 29.99218 29.992204 l 10.59325,10.39091 10.59325,10.39092 v 16.24213 c 3.6e-4,8.93317 -0.0531,16.23062 -0.11912,16.21661 -0.066,-0.014 -18.26402,-11.17773 -40.44002,-24.80838 z m 235.45471,8.61464 0.0148,-16.265 10.56957,-10.39092 10.56956,-10.39091 h 29.97578 29.97568 v 1.75942 1.75941 l -39.68693,24.36924 c -21.82787,13.40304 -40.07986,24.60647 -40.56003,24.89647 -0.84006,0.50739 -0.8725,-0.0872 -0.85835,-15.73771 z M 0.08046,320 c 0,-14.60374 0.09665,-17.18062 0.575118,-15.33418 1.836784,7.08826 10.024004,13.89263 17.793204,14.78787 2.797833,0.32238 2.797833,0.77027 0,1.09265 -7.7692,0.89523 -15.95642,7.69961 -17.793204,14.78784 C 0.177105,337.18064 0.08046,334.60378 0.08046,320 Z m 479.26971,15.50972 c -1.06776,-6.54916 -10.00317,-14.06509 -17.78785,-14.96211 -2.61093,-0.30089 -2.49418,-0.74421 0.29463,-1.11913 7.60629,-1.02253 16.24694,-8.28663 17.46324,-14.68116 0.44596,-2.34453 0.97336,-2.44266 1.3312,-0.24772 1.06704,6.54453 10.00725,14.05643 17.79743,14.95409 1.20514,0.13889 2.19118,0.38472 2.19118,0.54634 0,0.16158 -0.98604,0.40743 -2.19118,0.54631 -3.49956,0.40324 -8.25271,2.60444 -11.47683,5.31492 -3.22413,2.71046 -5.84244,6.70638 -6.32211,9.64846 -0.16524,1.01317 -0.45759,1.84213 -0.64987,1.84213 -0.19224,0 -0.48463,-0.82896 -0.64984,-1.84213 z m 479.99993,0 c -1.0677,-6.54916 -10.0031,-14.06509 -17.78781,-14.96211 -2.6109,-0.30089 -2.49415,-0.74421 0.29462,-1.11913 7.57349,-1.01808 15.46169,-7.56645 17.46029,-14.49442 0.5126,-1.77707 0.6072,0.45747 0.642,15.16684 0.023,9.48802 -0.038,17.25095 -0.134,17.25095 -0.096,0 -0.3099,-0.82896 -0.4751,-1.84213 z m -902.230094,-8.24616 -1.2,-0.7891 1.31999,-0.009 c 1.00357,-0.007 1.32001,0.1845 1.32001,0.79808 0,0.97623 0.0445,0.97623 -1.44,0 z m 364.320034,0.0142 c 0,-0.61204 0.31291,-0.82127 1.22832,-0.82127 1.3348,0 1.20236,0.54889 -0.29506,1.22261 -0.78224,0.35198 -0.93326,0.287 -0.93326,-0.40134 z M 17.396041,312.68599 c -3.101483,-1.00206 -6.699571,-3.86702 -8.29877,-6.60784 l -1.177268,-2.01763 v -16.34298 -16.343 l 1.174849,-2.00713 c 1.498489,-2.56004 4.432503,-5.02663 7.477667,-6.2864 l 2.387484,-0.98768 H 239.99999 461.04003 l 2.39998,0.98972 c 3.35686,1.3843 6.66983,4.36439 7.88346,7.09138 0.94439,2.12203 0.99655,3.0401 0.99655,17.54311 0,14.68011 -0.0422,15.39859 -1.03381,17.62684 -1.39496,3.13441 -4.99068,6.15729 -8.71906,7.33002 l -2.76314,0.86911 -219.94201,-0.0212 C 20.345884,313.50148 19.915116,313.49963 17.396041,312.68584 Z m 479.999959,0 c -3.10147,-1.00206 -6.69953,-3.86702 -8.29875,-6.60784 l -1.17724,-2.01763 v -16.34298 -16.343 l 1.17482,-2.00713 c 1.49854,-2.56004 4.43254,-5.02663 7.47771,-6.2864 l 2.38745,-0.98768 h 221.03998 221.03999 l 2.40004,0.98972 c 3.3568,1.3843 6.6698,4.36439 7.8834,7.09138 0.9444,2.12203 0.9966,3.0401 0.9966,17.54311 0,14.68011 -0.042,15.39859 -1.0338,17.62684 -1.395,3.13441 -4.9907,6.15729 -8.71908,7.33002 l -2.76311,0.86911 -219.94199,-0.0212 c -219.51607,-0.0208 -219.94688,-0.0227 -222.46598,-0.83649 z M 0.08046,248.77681 c 0,-19.77673 0.10535,-23.8053 0.575118,-21.99244 1.88789,7.28548 9.574462,13.55094 18.27258,14.8943 4.066185,0.62799 438.854742,0.62338 442.448262,-0.005 8.51115,-1.48758 16.69467,-8.24102 17.94377,-14.80812 0.44596,-2.34453 0.97336,-2.44266 1.3312,-0.2477 1.09818,6.73558 9.5688,13.71564 18.27681,15.06052 4.0662,0.62799 438.85463,0.62338 442.44815,-0.005 8.48875,-1.48368 15.89115,-7.51646 17.94075,-14.62141 0.5027,-1.74252 0.6014,1.85102 0.6018,21.926 0,19.61906 -0.1045,23.6042 -0.5745,21.79067 -1.8879,-7.28548 -9.5744,-13.55093 -18.27258,-14.8943 -4.0379,-0.62362 -438.10572,-0.62362 -442.14362,0 -8.71359,1.34575 -17.17863,8.32488 -18.27828,15.06982 -0.16524,1.01314 -0.45763,1.84211 -0.64987,1.84211 -0.19224,0 -0.48467,-0.82897 -0.64988,-1.84214 -1.09969,-6.74494 -9.56473,-13.72407 -18.27831,-15.06982 -4.0379,-0.62362 -438.105802,-0.62362 -442.143702,0 -8.698118,1.34336 -16.38469,7.60882 -18.27258,14.8943 C 0.18581,272.58138 0.08046,268.55281 0.08046,248.77609 Z m 17.315581,-13.97229 c -3.101483,-1.00207 -6.699571,-3.867 -8.29877,-6.60779 l -1.177268,-2.01765 -0.129492,-28.1103 -0.129492,-28.11029 12.983424,-2.65893 c 7.140881,-1.46242 13.193154,-2.65895 13.449491,-2.65895 0.297893,0 0.466067,12.81357 0.466067,35.51072 v 35.51072 l -7.319998,-0.021 c -6.152227,-0.0177 -7.722655,-0.15112 -9.843962,-0.8365 z m 20.04396,-35.04117 v -35.89869 l 1.8,-0.39932 c 0.99,-0.21962 3.366,-0.69515 5.280005,-1.05672 3.34689,-0.63226 3.48,-0.70248 3.48,-1.83566 0,-0.64804 -0.23402,-1.17825 -0.52003,-1.17825 -0.47062,0 -7.149337,1.35238 -9.199976,1.86292 -0.796054,0.19818 -0.839999,-1.90088 -0.839999,-40.1244 V 80.799728 l 4.842248,0.96205 c 2.663237,0.52914 5.039237,0.96206 5.279997,0.96206 0.24077,0 0.43776,-0.51156 0.43776,-1.13681 0,-1.08379 -0.17049,-1.1706 -3.65562,-1.86133 -2.010596,-0.39848 -4.386595,-0.89419 -5.280004,-1.10157 l -1.624381,-0.37707 V 42.351784 6.456496 h 7.886615 c 7.63632,0 7.89149,0.02681 8.04,0.845166 0.1075,0.592322 9.8464,6.793868 32.55338,20.729371 l 32.400014,19.884203 0.12386,23.457262 c 0.0681,12.9015 0.0183,23.45727 -0.11076,23.45727 -0.31193,0 -63.124084,-12.86632 -64.246724,-13.16017 -0.74063,-0.19387 -0.85024,-0.0277 -0.72,1.09162 l 0.15362,1.3203 32.51999,6.66273 32.520014,6.66272 v 23.730322 c 0,13.05167 -0.162,23.73077 -0.36,23.73132 -0.198,3e-4 -14.832,2.96969 -32.520014,6.59807 l -32.15999,6.59707 -0.15362,1.30694 c -0.12979,1.10412 -0.018,1.27264 0.72,1.08593 1.05252,-0.26628 64.059914,-13.16784 64.307794,-13.16784 0.0955,0 0.11782,10.56277 0.0497,23.47281 l -0.12387,23.47281 -32.400014,19.87968 c -22.40912,13.74958 -32.44729,20.1369 -32.55338,20.71382 -0.14786,0.80411 -0.43749,0.83415 -8.04,0.83415 h -7.886615 z m 18.984005,35.54178 c 0.5476,-0.42863 60.675874,-37.28881 61.536004,-37.72316 0.47664,-0.24069 0.6,3.64275 0.6,18.88855 v 19.19153 H 87.263996 c -18.16328,0 -31.10464,-0.14977 -30.83999,-0.35692 z m 71.573364,-2.37443 c 1.54145,-1.50225 19.20597,-18.84399 39.25451,-38.53721 l 36.45191,-35.80584 h 36.30059 36.30064 l 37.88751,37.21189 c 20.8381,20.46655 38.50384,37.80829 39.25721,38.53721 l 1.36969,1.3253 H 240.00708 125.19474 Z m 233.44266,-16.48277 v -19.21414 l 1.08,0.59621 c 1.55923,0.86076 60.51189,37.04149 61.05599,37.4716 0.26799,0.21182 -12.44879,0.36045 -30.84001,0.36045 h -31.29598 z m 65.19337,18.37142 c -0.10718,-0.58888 -9.91217,-6.83149 -32.55336,-20.72592 l -32.4,-19.88323 -0.12388,-23.46071 c -0.0681,-12.90339 -0.0384,-23.46071 0.0659,-23.46071 0.26806,0 63.22867,12.89233 64.29157,13.16485 0.73861,0.18938 0.84989,0.022 0.72,-1.08294 l -0.15359,-1.30694 -32.16003,-6.59707 c -17.68798,-3.62838 -32.32198,-6.59751 -32.51998,-6.59807 -0.198,-3e-4 -0.36,-10.6785 -0.36,-23.72876 V 97.412098 l 32.51998,-6.65898 32.52003,-6.65899 0.15361,-1.3266 c 0.13032,-1.12543 0.0212,-1.29193 -0.72,-1.09793 -1.1137,0.29151 -63.93351,13.16017 -64.24286,13.16017 -0.1269,0 -0.23076,-10.52023 -0.23076,-23.37828 V 48.073203 L 394.08004,28.045399 C 417.81977,13.47877 426.72001,7.804757 426.72001,7.237047 c 0,-0.740178 0.40968,-0.780551 7.92,-0.780551 h 7.92 v 35.895288 35.895274 l -1.62435,0.37707 c -0.89342,0.20738 -3.26942,0.70309 -5.28002,1.10157 -3.48512,0.69073 -3.65562,0.77754 -3.65562,1.86133 0,1.36407 -0.0401,1.36288 5.87999,0.17389 l 4.68,-0.93994 v 40.322892 c 0,38.21339 -0.0439,40.31194 -0.83999,40.11376 -2.05063,-0.51054 -8.72935,-1.86292 -9.19998,-1.86292 -0.28602,0 -0.52002,0.52654 -0.52002,1.17009 0,1.12392 0.13763,1.19583 3.48905,1.82266 1.91898,0.35892 4.29498,0.83966 5.28001,1.0683 l 1.79093,0.41573 v 35.89528 35.89528 h -7.88659 c -7.62883,0 -7.89163,-0.0276 -8.04002,-0.8427 z m 18.80661,-34.66802 c 0,-24.37378 0.157,-35.51072 0.50051,-35.51072 0.27526,0 6.32326,1.19551 13.43999,2.6567 l 12.93951,2.65669 v 27.59298 c 0,27.26171 -0.0122,27.62088 -1.03381,29.91593 -0.70067,1.57438 -1.82689,2.98965 -3.49488,4.39192 -3.78709,3.18375 -6.2712,3.80722 -15.16932,3.80722 h -7.182 z m 51.95603,34.65319 c -3.10147,-1.00207 -6.69953,-3.867 -8.29876,-6.60779 l -1.17723,-2.01765 -0.12946,-28.09522 -0.12953,-28.09523 3.00953,-0.63503 c 1.65517,-0.34927 15.53745,-3.19346 30.84941,-6.32042 15.31202,-3.12696 28.11128,-5.7643 28.4428,-5.86075 0.48118,-0.13998 0.57798,6.55134 0.48003,33.16561 l -0.12284,33.34097 -9.73184,5.99152 -9.73188,5.99152 -15.46812,-0.021 c -14.33401,-0.0195 -15.65319,-0.0808 -17.99215,-0.83651 z m 39.02799,0.50115 c 0.54537,-0.42623 12.67571,-7.83515 13.53596,-8.26743 0.46545,-0.23388 0.60005,0.69926 0.60005,4.16116 v 4.46265 h -7.29601 c -4.24487,0 -7.10528,-0.14903 -6.84,-0.35638 z m 17.01601,-5.06575 v -5.42214 l 28.08,-17.22691 c 27.51944,-16.88304 28.08,-17.25408 28.08,-18.58795 0,-0.74858 -0.12449,-1.36105 -0.27659,-1.36105 -0.15221,0 -12.51817,7.50613 -27.47999,16.68029 -14.96188,9.17415 -27.47473,16.81228 -27.80625,16.97359 -0.48211,0.23457 -0.57827,-6.23274 -0.48002,-32.29516 l 0.12283,-32.58847 27.84002,-5.69614 27.83995,-5.69615 0.15361,-1.32287 c 0.13022,-1.12089 0.0202,-1.28844 -0.72,-1.09737 -2.02435,0.52255 -54.20617,11.14374 -54.75362,11.14468 -0.47505,8.4e-4 -0.59997,-6.80467 -0.59997,-32.68499 0,-23.078282 0.15195,-32.686012 0.51688,-32.686012 0.48093,0 52.90931,10.6596 54.83671,11.14926 0.73779,0.18741 0.84975,0.0196 0.72,-1.07907 l -0.15361,-1.30101 -27.83995,-5.70884 -27.84002,-5.70885 -0.12283,-32.62032 -0.12287,-32.620322 1.08288,0.597718 c 0.59555,0.328742 13.24515,8.066693 28.11027,17.195447 l 27.02747,16.597728 -0.14746,-1.619489 -0.14745,-1.619491 -27.83999,-17.086351 -27.84002,-17.086355 -0.13353,-5.503412 -0.13352,-5.503415 h 23.97211 23.97215 l 4.00143,3.915091 4.00137,3.91509 0.14929,-1.724254 c 0.13406,-1.549171 -0.0769,-1.946711 -2.07716,-3.91509 l -2.22635,-2.190837 h 114.81544 114.81537 l -2.2464,2.210563 c -2.01305,1.980909 -2.23106,2.387644 -2.09833,3.915088 l 0.14814,1.70453 4.00136,-3.91509 4.00144,-3.915091 h 23.97214 23.97212 l -0.13353,5.516469 -0.13356,5.516471 -27.83998,17.081043 -27.83999,17.081046 -0.15271,1.701745 c -0.14476,1.613596 -0.10746,1.668765 0.72,1.065073 0.94068,-0.686248 53.75487,-33.080478 54.75553,-33.584938 0.48222,-0.243096 0.57826,6.219463 0.47998,32.293723 l -0.12283,32.59763 -27.83998,5.70885 -27.83999,5.70884 -0.15361,1.30101 c -0.12964,1.09783 -0.0173,1.26678 0.72,1.08182 1.94187,-0.4872 54.4082,-11.15201 54.86309,-11.15201 0.32994,0 0.4905,10.69832 0.4905,32.686012 0,25.88032 -0.12495,32.68578 -0.60001,32.68499 -0.54741,-8.4e-4 -52.72923,-10.62213 -54.75358,-11.14468 -0.73973,-0.19094 -0.85007,-0.0237 -0.72,1.09115 l 0.15361,1.31665 27.83999,5.69824 27.83998,5.69825 0.12283,32.61528 0.12291,32.61528 -1.08288,-0.59771 c -0.59555,-0.32874 -13.24509,-8.06504 -28.11006,-17.19177 l -27.02725,-16.59406 0.14724,1.62035 0.14724,1.62037 27.83999,17.08418 27.83998,17.0842 0.13356,5.50103 0.13353,5.50102 h -23.97212 -23.97214 l -4.00144,-3.91509 -4.00136,-3.91508 -0.14929,1.72425 c -0.13407,1.54917 0.0769,1.94671 2.07716,3.91509 l 2.22631,2.19083 h -114.7942 -114.7942 l 2.22631,-2.19083 c 2.0003,-1.96838 2.21123,-2.36592 2.07716,-3.91509 l -0.14929,-1.72425 -4.00136,3.91508 -4.00144,3.91509 h -23.95854 -23.95861 z m 72.47999,-14.93988 8.39998,-8.26485 85.68515,-0.0119 85.68518,-0.0118 9.35481,9.23959 9.35485,9.23958 0.14555,-1.75891 c 0.14541,-1.75655 0.13273,-1.77149 -9.46875,-11.15636 l -9.61438,-9.39747 -0.0112,-14.05018 -0.0112,-14.05018 1.55999,0.9221 c 0.85802,0.50716 5.19088,3.15986 9.62856,5.8949 l 8.06853,4.97279 -0.14853,-1.61772 c -0.14688,-1.59927 -0.25535,-1.68364 -9.50854,-7.39454 l -9.36,-5.77682 -0.12553,-16.02647 c -0.0735,-9.3852 0.0547,-16.02647 0.30942,-16.02647 0.23919,0 4.46461,0.81715 9.38985,1.81589 4.92519,0.99874 9.05194,1.81589 9.1706,1.81589 0.11858,0 0.21564,-0.52302 0.21564,-1.16227 v -1.16227 l -9.47991,-1.98821 -9.47999,-1.9882 v -16.30951 -16.30952 l 8.39999,-1.71081 c 4.61999,-0.94095 8.88599,-1.81162 9.47999,-1.93483 0.81889,-0.16986 1.08,-0.51487 1.08,-1.426922 0,-0.6616 -0.0809,-1.20291 -0.17971,-1.20291 -0.0988,0 -4.19462,0.81715 -9.1017,1.815882 -4.90709,0.99874 -9.14865,1.81589 -9.42577,1.81589 -0.34539,0 -0.46433,-5.041612 -0.37833,-16.035002 l 0.12553,-16.03502 9.36,-5.738714 c 8.8537,-5.428285 9.36807,-5.816029 9.50897,-7.168016 0.0819,-0.786114 0.005,-1.429299 -0.17086,-1.429299 -0.17593,0 -4.45499,2.542675 -9.509,5.650382 l -9.18911,5.65038 -0.12625,-13.952535 -0.12629,-13.952535 9.60628,-9.417298 c 9.50537,-9.318754 9.60591,-9.436936 9.60591,-11.294118 v -1.876912 l -11.45638,11.223006 c -6.30108,6.172655 -29.76149,29.200311 -52.13434,51.172569 -22.37284,21.972252 -40.84181,39.949552 -41.04212,39.949552 -0.29952,0 -52.28193,-50.858612 -94.51454,-92.471227 l -9.89236,-9.747417 -0.14552,1.762305 c -0.14544,1.760892 -0.13788,1.769836 9.46876,11.159752 l 9.61434,9.397454 0.0112,14.072108 c 0.009,11.194121 -0.11149,13.993777 -0.58882,13.689092 -4.05605,-2.589298 -18.07297,-11.014669 -18.32454,-11.014669 -0.18331,0 -0.26629,0.630053 -0.18435,1.40012 0.13957,1.311726 0.73994,1.764826 9.50896,7.176554 l 9.36,5.776436 0.12554,16.02647 c 0.086,10.98744 -0.0331,16.026472 -0.37833,16.026472 -0.27716,0 -4.51868,-0.81715 -9.42577,-1.81588 -4.90709,-0.998742 -9.00288,-1.815892 -9.1017,-1.815892 -0.0989,0 -0.17971,0.54931 -0.17971,1.22068 0,1.007042 0.23101,1.260802 1.31998,1.449942 0.72601,0.1261 4.99201,0.99081 9.48002,1.9216 l 8.15997,1.69232 v 16.30498 16.30498 l -9.47998,1.98821 -9.47999,1.98821 v 1.16226 c 0,0.63925 0.11624,1.16227 0.25826,1.16227 0.1421,0 4.2732,-0.81715 9.18029,-1.81589 4.90709,-0.99874 9.11088,-1.81589 9.34171,-1.81589 0.23253,0 0.41973,7.07827 0.41973,15.86914 v 15.86913 l -1.08,0.81255 c -0.594,0.44689 -4.914,3.14565 -9.60002,5.99722 -8.46395,5.15058 -8.51997,5.19478 -8.51997,6.7185 v 1.5338 l 7.31995,-4.48867 c 4.02602,-2.46877 8.34602,-5.11519 9.60005,-5.88095 l 2.27995,-1.39226 -0.0148,14.05707 -0.0148,14.05706 -9.58525,9.39185 c -9.53644,9.34409 -9.58522,9.40156 -9.5828,11.29887 v 1.90702 l 1.07762,-1.10533 c 0.59267,-0.60793 4.85762,-4.82451 9.47761,-9.37018 z m 11.52806,-11.01252 c 0.0115,-0.42271 82.14886,-81.00882 82.56844,-81.00882 0.42246,0 82.53493,80.58935 82.5399,81.00882 0,0.16646 -37.1484,0.30265 -82.55642,0.30265 -45.40799,0 -82.55635,-0.13619 -82.55192,-0.30265 z m -0.008,-17.49428 v -13.51951 l 35.96238,-22.07192 c 19.77941,-12.13955 36.08424,-22.07192 36.23302,-22.07192 0.1935,0 -68.3223,67.57649 -71.7836,70.7995 -0.22982,0.21399 -0.41169,-5.58954 -0.41169,-13.13615 z m 129.36002,-21.58041 c -19.53605,-19.19156 -35.82673,-35.26521 -36.2016,-35.71923 -0.37483,-0.45404 15.66313,9.20634 35.64,21.4675 l 36.32155,22.29302 v 13.4486 c 0,7.39674 -0.054,13.43854 -0.11995,13.42622 -0.066,-0.0123 -16.10403,-15.72457 -35.64,-34.91611 z M 637.4402,154.61316 c 0,-14.26367 0.059,-15.35487 0.83999,-15.5438 2.79997,-0.67729 74.19902,-15.18336 74.29082,-15.09357 0.13089,0.12808 -74.01769,45.64302 -74.6838,45.84347 -0.27101,0.0815 -0.44701,-5.90657 -0.44701,-15.2061 z m 127.14778,-7.65036 c -20.48872,-12.58238 -37.20434,-22.92784 -37.14573,-22.98993 0.0885,-0.0938 71.67308,14.45185 74.27793,15.09294 0.78091,0.1922 0.84002,1.28342 0.84002,15.51372 0,8.41884 -0.162,15.29648 -0.36,15.28365 -0.198,-0.0129 -17.12354,-10.31801 -37.61222,-22.90038 z M 637.43992,121.13885 v -15.74448 l 2.52,0.50169 c 19.5084,3.88377 72.84009,14.99046 72.84009,15.16941 0,0.13104 -16.686,3.65851 -37.08,7.83882 -20.394,4.18032 -37.35,7.68573 -37.67997,7.7898 -0.47362,0.14937 -0.60001,-3.12776 -0.60001,-15.55524 z m 127.07999,7.86641 c -20.5259,-4.23622 -37.3199,-7.80803 -37.3199,-7.93736 0,-0.1846 46.53673,-9.87056 70.92,-14.76098 l 4.44002,-0.8905 v 15.69027 c 0,8.62966 -0.162,15.67015 -0.36,15.64554 -0.198,-0.0246 -17.154,-3.51075 -37.68001,-7.74697 z m -88.67998,-18.19809 c -19.66802,-4.0497 -36.35402,-7.48889 -37.08,-7.64263 l -1.32001,-0.27953 V 87.558518 c 0,-8.42956 0.11491,-15.32648 0.25535,-15.32648 0.1405,0 14.6665,8.84391 32.28001,19.65313 17.61354,10.809212 34.47964,21.159782 37.48017,23.001252 3.00056,1.84147 5.16056,3.33367 4.79999,3.31599 -0.36051,-0.0177 -16.74752,-3.34553 -36.41551,-7.39524 z m 52.31998,6.90912 c 0.89608,-0.75283 73.8279,-45.484252 74.15924,-45.484252 0.13241,0 0.24077,6.89338 0.24077,15.31862 v 15.318612 l -1.8,0.39638 c -0.99,0.218 -17.46,3.59446 -36.60001,7.50324 -19.14001,3.90878 -35.23201,7.20709 -35.75998,7.32958 -0.85328,0.19793 -0.87995,0.15544 -0.24002,-0.38218 z M 673.56001,91.093828 637.44003,68.867097 V 55.349901 c 0,-7.434457 0.0773,-13.44153 0.17168,-13.349056 24.38093,23.877883 72.3083,71.075545 72.3083,71.207355 0,0.27545 2.15359,1.58527 -36.36,-22.114372 z m 56.81203,21.824072 c 0.65419,-0.88987 71.69051,-70.547152 71.9438,-70.547152 0.13432,0 0.24419,5.967081 0.24419,13.260185 v 13.260183 l -20.28002,12.445172 c -11.15399,6.84485 -27.47952,16.86411 -36.27897,22.265002 -8.7994,5.40091 -15.83247,9.59338 -15.629,9.31661 z m 159.06797,118.25891 v -4.48526 l 1.29672,0.71429 c 1.52838,0.84189 12.17646,7.39949 12.83929,7.90703 0.25863,0.19805 -2.7018,0.34918 -6.83999,0.34918 h -7.29602 z m 10.00858,-1.51319 -9.76856,-5.99844 -0.1228,-33.33405 c -0.098,-26.6073 0,-33.29936 0.47999,-33.16206 0.33156,0.0946 12.69878,2.64147 27.48279,5.65972 14.78401,3.01825 28.66199,5.86327 30.83999,6.32227 l 3.96,0.83455 v 27.57718 c 0,27.24553 -0.013,27.60512 -1.0338,29.90012 -1.395,3.1344 -4.9907,6.15729 -8.71908,7.33002 -2.61655,0.82302 -3.5744,0.86912 -18.05652,0.86912 H 909.21715 Z M 121.44001,215.40074 v -20.03713 l 39.96,-24.50003 c 21.978,-13.47503 40.23,-24.67727 40.56001,-24.89389 0.47318,-0.31061 0.59997,0.70514 0.59997,4.80628 v 5.20012 l -39.63729,38.93504 c -21.80052,21.41427 -40.05252,39.29317 -40.56001,39.73089 -0.91058,0.78541 -0.92268,0.53285 -0.92268,-19.24128 z m 196.44432,-19.73126 -40.4357,-39.70479 -0.004,-5.17249 -0.004,-5.1725 1.56002,0.92891 c 4.91526,2.9268 78.46276,48.11368 78.96456,48.51505 0.47354,0.37876 0.57758,4.80056 0.48002,20.3971 l -0.12459,19.9135 z M 121.44001,169.40503 v -22.76851 l 40.43999,-8.29926 40.44002,-8.29926 0.13298,6.08118 c 0.11783,5.38674 0.0356,6.16088 -0.72,6.77907 -0.79895,0.65368 -76.56915,47.22404 -79.11856,48.62836 l -1.17443,0.64692 z M 318.72,167.86016 c -21.78,-13.3607 -39.978,-24.57267 -40.43999,-24.91551 -0.73177,-0.54301 -0.84002,-1.42672 -0.84002,-6.85869 0,-4.82089 0.13612,-6.19212 0.60001,-6.04479 0.33001,0.10481 18.52801,3.86599 40.43999,8.35819 21.91201,4.49219 39.89581,8.2105 39.96403,8.26289 0.0682,0.0524 0.0682,10.3091 0,22.79268 L 358.32,192.15234 Z M 7.680002,121.05928 V 74.637848 l 1.320001,0.28575 c 0.726001,0.15717 6.72,1.39154 13.319999,2.74304 l 12.000002,2.45729 v 40.938112 40.93812 l -12.000002,2.46091 c -6.599999,1.3535 -12.593998,2.58663 -13.319999,2.74027 l -1.320001,0.27936 z m 450.960018,43.63662 -12.96,-2.6929 V 121.06756 80.132118 l 11.99999,-2.45951 c 6.60002,-1.35272 12.59402,-2.58894 13.32,-2.74713 l 1.32001,-0.28763 v 46.413742 c 0,25.52756 -0.162,46.39652 -0.36,46.37548 -0.198,-0.021 -6.192,-1.25007 -13.32,-2.73117 z m 29.04001,-43.63662 c 0,-44.061992 0.0432,-46.449202 0.83999,-46.242642 0.46203,0.11979 14.23202,2.95392 30.6,6.29806 16.36801,3.34414 30.13801,6.17602 30.6,6.29308 0.79124,0.20045 0.84002,2.15579 0.84002,33.663132 v 33.45032 l -1.8,0.40247 c -0.99,0.22136 -14.76,3.05016 -30.6,6.28621 -15.84,3.23606 -29.17799,5.9796 -29.64002,6.09677 -0.79661,0.20203 -0.83999,-2.18723 -0.83999,-46.2474 z m 434.15998,40.18905 C 905.472,157.87051 891.486,154.97863 890.76003,154.8219 l -1.32002,-0.28494 v -33.45818 c 0,-31.516072 0.0488,-33.470342 0.83999,-33.667782 0.46203,-0.11528 14.23202,-2.94637 30.6,-6.29132 16.36801,-3.34494 30.138,-6.18052 30.6,-6.30128 0.7967,-0.20823 0.84,2.17692 0.84,46.213682 0,25.53829 -0.162,46.41626 -0.36,46.39549 -0.198,-0.0208 -13.75198,-2.80143 -30.11999,-6.17924 z m -714.86192,-5.78805 c 0.39978,-0.3884 7.91601,-7.78815 16.70271,-16.44388 8.7867,-8.65574 16.12803,-15.7377 16.31408,-15.7377 0.26291,0 30.15065,29.0965 33.06391,32.18856 0.62359,0.66187 -1.14228,0.6992 -33.07442,0.6992 -32.0837,0 -33.69762,-0.0345 -33.00628,-0.70618 z m -1.5381,-6.99506 v -4.64595 l 11.95938,-7.34469 c 6.57767,-4.03958 12.09161,-7.34469 12.25318,-7.34469 0.2304,0 -20.82017,20.89661 -23.56272,23.39038 -0.5495,0.49967 -0.64984,-0.12634 -0.64984,-4.05505 z m 57.36002,-6.85357 c -6.33599,-6.22951 -11.8283,-11.69229 -12.20515,-12.13949 -0.37681,-0.44721 4.86119,2.59365 11.64003,6.75747 l 12.3251,7.57058 v 4.56901 c 0,2.51294 -0.054,4.56896 -0.11999,4.5689 -0.066,-5e-5 -5.30399,-5.09697 -11.63999,-11.32647 z m -141.36,-20.50863 c 0,-12.67476 0.0732,-23.045002 0.16272,-23.045002 0.0895,0 17.8555,3.627392 39.48001,8.060872 21.62448,4.43349 39.80325,8.15952 40.39725,8.28008 1.06384,0.2159 1.08,0.31531 1.08,6.6408 0,5.76692 -0.0856,6.443 -0.83998,6.63131 -0.46199,0.11534 -18.22799,3.76739 -39.48001,8.11567 -21.25199,4.34829 -39.12599,8.00842 -39.71999,8.13363 l -1.08,0.22765 z m 197.03998,14.86256 c -21.384,-4.40647 -39.366,-8.11378 -39.96,-8.23847 -1.06362,-0.22328 -1.08,-0.32435 -1.08,-6.66783 0,-6.34695 0.0158,-6.44426 1.08,-6.65619 0.594,-0.11827 18.7763,-3.84431 40.40507,-8.28006 21.62876,-4.43576 39.39476,-8.065012 39.48001,-8.065012 0.0852,0 0.15494,10.350562 0.15494,23.001262 0,18.15417 -0.12643,22.99248 -0.60001,22.95966 -0.33001,-0.0229 -18.09601,-3.6469 -39.48001,-8.05336 z m -112.93383,-1.03811 0.13385,-5.5763 13.20001,-2.71699 c 7.25997,-1.49435 13.33476,-2.67906 13.49953,-2.63271 0.3002,0.0845 -25.65191,16.10366 -26.51058,16.3639 -0.27882,0.0845 -0.40453,-2.0332 -0.32281,-5.4379 z m 54.92588,-2.79198 c -7.35239,-4.53832 -13.18439,-8.24569 -12.96,-8.23859 0.22439,0.007 6.34795,1.23656 13.60796,2.73213 l 13.20001,2.71924 0.13353,5.54024 c 0.0735,3.04714 -0.0346,5.53085 -0.23998,5.51935 -0.20545,-0.0115 -6.38913,-3.73405 -13.74152,-8.27237 z m -55.03205,-11.07621 c 0,-3.10719 0.162,-5.65199 0.36,-5.6551 0.95573,-0.0151 27,5.44208 27,5.65737 0,0.21902 -26.09272,5.68751 -27,5.65862 -0.198,-0.006 -0.36,-2.55371 -0.36,-5.66089 z m 54.60001,2.9134 c -7.06201,-1.46499 -12.84001,-2.77349 -12.84001,-2.90777 0,-0.21184 26.03837,-5.66921 27,-5.65892 0.198,0.003 0.36,2.5461 0.36,5.65329 0,5.12518 -0.0779,5.64607 -0.83999,5.61322 -0.46199,-0.0199 -6.61799,-1.23484 -13.68,-2.69982 z m -36.83998,-21.32836 c -9.108,-9.002322 -17.424,-17.188462 -18.48003,-18.191442 -1.05598,-1.00297 -19.33502,-18.917069 -40.62005,-39.809099 L 125.39987,6.658263 182.69995,6.555746 c 31.51501,-0.05639 83.09123,-0.05639 114.61377,0 l 57.31372,0.102517 -37.17784,36.519548 c -20.44786,20.085752 -38.78712,38.063057 -40.75395,39.949557 -1.96686,1.8865 -10.94274,10.69357 -19.94641,19.571252 -9.00367,8.87767 -16.5096,16.18 -16.67977,16.22739 -0.17021,0.0474 -7.76145,-7.27938 -16.86945,-16.28169 z m -4.56001,12.82737 -12.96,-2.70292 -0.13356,-5.53949 c -0.0734,-3.04672 -0.014,-5.53949 0.13179,-5.53949 0.14595,0 6.33409,3.72258 13.75143,8.27239 7.41733,4.5498 13.19003,8.25889 12.8282,8.24241 -0.36184,-0.0165 -6.48987,-1.24629 -13.61786,-2.7329 z m 29.04001,2.59786 c 0,-0.21974 26.29598,-16.37976 26.65357,-16.37976 0.13942,0 0.19342,2.49113 0.11995,5.53583 l -0.13353,5.53582 -12.24,2.52499 c -6.73199,1.38875 -12.72599,2.62366 -13.31999,2.74425 -0.594,0.12059 -1.08,0.13808 -1.08,0.0388 z m -30.12001,-12.2491 -12.12002,-7.506552 v -4.65326 c 0,-3.95166 0.0988,-4.56416 0.65535,-4.06236 3.50741,3.16244 24.17979,23.859492 23.733,23.761312 -0.0816,-0.0179 -5.60232,-3.41054 -12.26833,-7.53914 z m 32.81835,7.08127 c 0.28105,-0.38799 21.36294,-21.225522 23.77501,-23.499452 0.22504,-0.21214 0.40662,1.69975 0.40662,4.28102 v 4.66438 l -12.27856,7.536202 c -6.75323,4.14491 -12.1096,7.30294 -11.90307,7.01785 z m -88.61817,-9.06947 c -22.04392,-4.544302 -40.13572,-8.309352 -40.20404,-8.366792 -0.0683,-0.0574 -0.0684,-10.31764 -1.8e-4,-22.80046 l 0.12405,-22.696025 39.6,24.291375 c 21.78,13.36026 39.978,24.57162 40.43999,24.91413 0.7313,0.54218 0.83998,1.423862 0.83998,6.814932 0,3.4057 -0.162,6.17262 -0.36,6.1487 -0.198,-0.024 -18.39589,-3.76156 -40.4398,-8.30586 z m 115.78744,2.0291 0.13237,-6.381232 40.32,-24.74456 40.32,-24.744564 0.12402,22.685014 c 0.0682,12.47676 0.0682,22.73195 0,22.78931 -0.0682,0.0573 -17.94406,3.75547 -39.72402,8.218032 -21.78,4.46256 -39.98358,8.21398 -40.45237,8.33649 -0.79546,0.20787 -0.84355,-0.20329 -0.72,-6.15849 z M 162.48001,71.980708 C 140.568,58.540992 122.36795,47.325813 122.03541,47.058085 121.56194,46.67686 121.45787,42.252734 121.55543,26.656371 l 0.12459,-19.914923 39.6,38.882405 c 21.78,21.385323 39.98451,39.288745 40.45453,39.785385 0.73519,0.7769 0.83574,1.60839 0.72,5.95514 l -0.13453,5.05217 z M 277.54583,91.234618 277.68,85.962978 318,46.368622 358.32,6.774265 358.44459,26.67278 c 0.0975,15.58055 -0.006,20.005523 -0.48002,20.391636 -0.55152,0.449851 -78.87582,48.570452 -80.04668,49.178802 -0.34769,0.18065 -0.46422,-1.38831 -0.37206,-5.0086 z m 242.5342,-12.36241 c -16.632,-3.42408 -30.73028,-6.32325 -31.3295,-6.44258 l -1.08954,-0.21699 0.12953,-28.136579 0.12953,-28.136587 1.17482,-2.00713 c 1.49854,-2.560037 4.43254,-5.026636 7.4777,-6.286396 2.36708,-0.979255 2.52303,-0.988676 18.2722,-1.10381 l 15.88475,-0.116126 9.91526,6.095405 9.91526,6.095401 v 33.264107 c 0,18.295255 -0.054,33.253475 -0.12002,33.240495 -0.066,-0.013 -13.72799,-2.82513 -30.35999,-6.24921 z M 889.44001,51.846578 V 18.619709 l 9.92866,-6.096808 9.92869,-6.096809 15.87132,0.116084 c 15.74168,0.115136 15.8909,0.12417 18.27132,1.105801 3.3568,1.384303 6.6698,4.364395 7.8834,7.091383 0.9731,2.186494 0.9966,2.889506 0.9966,29.858258 v 27.61904 l -1.08,0.21479 c -0.594,0.11813 -13.49998,2.7643 -28.67999,5.88038 -15.18001,3.11609 -28.84201,5.91221 -30.35998,6.21361 l -2.76002,0.54801 z M 21.360001,75.033188 c -6.336,-1.31676 -12.01028,-2.49006 -12.609518,-2.60733 L 7.660965,72.212638 7.790486,44.076059 7.920003,15.939472 9.094852,13.932342 C 10.593341,11.372305 13.527355,8.905706 16.572519,7.645946 18.756182,6.74258 19.625895,6.647331 26.76,6.530221 l 7.800001,-0.128038 v 35.537879 c 0,33.586216 -0.04613,35.536486 -0.839998,35.512566 C 33.258,77.438728 27.696,76.349958 21.360001,75.033188 Z M 445.44001,41.940062 V 6.402183 l 7.80001,0.128038 c 7.13617,0.117143 8.00428,0.212272 10.19999,1.117756 3.35686,1.384303 6.66983,4.364395 7.88346,7.091383 0.97308,2.186494 0.99655,2.889506 0.99655,29.858258 v 27.61904 l -1.08,0.21077 c -0.594,0.11592 -6.372,1.29955 -12.84001,2.63029 -6.46797,1.33073 -12.02997,2.41967 -12.35999,2.41986 -0.47545,2.9e-4 -0.60001,-7.37605 -0.60001,-35.537516 z M 87.195236,25.760118 56.070486,6.658263 87.151716,6.554412 c 17.094684,-0.05712 31.156954,-0.04019 31.249504,0.03762 0.0925,0.07781 0.11214,8.720375 0.0435,19.205702 l -0.12471,19.064242 z M 361.44003,25.648029 V 6.456496 h 31.30286 c 26.231,0 31.18896,0.08783 30.6,0.542073 -0.76911,0.593175 -60.3293,37.074478 -61.30285,37.548725 -0.47646,0.232095 -0.60001,-3.659177 -0.60001,-18.899265 z M 0.04023,8.776799 0,3e-6 10.439999,0.033823 C 19.759031,0.064023 20.596535,0.119553 18.24,0.55114 9.826459,2.092019 2.488453,8.261003 0.655575,15.334179 0.142207,17.315295 0.076137,16.611211 0.040227,8.776802 Z m 479.30994,6.732898 c -1.06488,-6.531488 -9.15868,-13.414398 -17.59014,-14.95856 -2.19635,-0.402247 0.86883,-0.483499 18.24002,-0.483499 17.37115,0 20.43633,0.08125 18.23997,0.483499 -8.43149,1.544162 -16.52522,8.427072 -17.5901,14.95856 -0.16524,1.013172 -0.45763,1.842134 -0.64987,1.842134 -0.19224,0 -0.48467,-0.828962 -0.64988,-1.842134 z m 479.99993,0 C 958.2853,8.978209 950.1915,2.095299 941.76,0.551137 939.40344,0.119555 940.24101,0.06401 949.56,0.03382 L 960,0 v 8.675912 c 0,4.771754 -0.079,8.675916 -0.1748,8.675916 -0.096,0 -0.3099,-0.828962 -0.4751,-1.842134 z m -416.14929,-4.477314 -7.11917,-4.37412 7.066,-0.111992 c 3.88627,-0.0616 7.15151,-0.04008 7.25605,0.04781 0.10455,0.0879 0.12849,2.106646 0.0533,4.486112 l -0.13691,4.326304 z m 346.2392,-0.11323 V 6.456496 h 7.2 c 3.96,0 7.2,0.06809 7.2,0.151315 0,0.14703 -12.59859,7.887657 -13.79998,8.47878 -0.46498,0.228793 -0.60002,-0.708887 -0.60002,-4.167438 z"
       id="path88" />
    <g
       id="g74"
       transform="matrix(0.35997064,0,0,0.30264219,1164.6776,-10.872182)">
      <path
         style="fill:#8c8c8c;fill-opacity:1;stroke-width:1.33333"
         d="m -1903.197,2092.0685 c 0.4532,-0.7333 1.0887,-1.3333 1.412,-1.3333 0.3235,0 0.588,0.6 0.588,1.3333 0,0.7334 -0.6355,1.3334 -1.412,1.3334 -0.7767,0 -1.0412,-0.6 -0.588,-1.3334 z m 0,-96 c -0.4532,-0.7333 -0.1887,-1.3333 0.588,-1.3333 0.7765,0 1.412,0.6 1.412,1.3333 0,0.7334 -0.2645,1.3334 -0.588,1.3334 -0.3233,0 -0.9588,-0.6 -1.412,-1.3334 z m 0,-161.3333 c 0.4532,-0.7333 1.0887,-1.3333 1.412,-1.3333 0.3235,0 0.588,0.6 0.588,1.3333 0,0.7333 -0.6355,1.3333 -1.412,1.3333 -0.7767,0 -1.0412,-0.6 -0.588,-1.3333 z m -940.6667,-15.1701 c 0,-0.2768 1.05,-1.3268 2.3333,-2.3334 2.1148,-1.6584 2.1619,-1.6113 0.5035,0.5035 -1.7419,2.2209 -2.8368,2.9273 -2.8368,1.8299 z m 404,-186.6667 c 0,-0.2768 1.05,-1.3268 2.3333,-2.3333 2.1148,-1.6584 2.162,-1.6114 0.5035,0.5034 -1.7419,2.221 -2.8368,2.9274 -2.8368,1.8299 z m 6.6667,-6.6667 c 0,-0.2768 1.05,-1.3268 2.3333,-2.3333 2.1148,-1.6584 2.1619,-1.6113 0.5034,0.5035 -1.7418,2.2209 -2.8367,2.9273 -2.8367,1.8298 z m 45.4386,-117.6076 c 0.064,-1.5533 0.3799,-1.8692 0.8055,-0.8056 0.3852,0.9626 0.3378,2.1126 -0.1052,2.5556 -0.443,0.4431 -0.7582,-0.3445 -0.7003,-1.75 z m -364,-1.3333 c 0.064,-1.5533 0.3799,-1.8692 0.8055,-0.8056 0.3852,0.9625 0.3378,2.1125 -0.1052,2.5556 -0.443,0.4431 -0.7582,-0.3445 -0.7003,-1.75 z m 372,-1.3333 c 0.064,-1.5534 0.3799,-1.8692 0.8055,-0.8056 0.3852,0.9625 0.3378,2.1125 -0.1052,2.5556 -0.443,0.443 -0.7582,-0.3446 -0.7003,-1.75 z m 0,-25.3334 c 0.064,-1.5533 0.3799,-1.8692 0.8055,-0.8056 0.3852,0.9626 0.3378,2.1126 -0.1052,2.5556 -0.443,0.4431 -0.7582,-0.3445 -0.7003,-1.75 z m -372,-1.3333 c 0.064,-1.5533 0.3799,-1.8692 0.8055,-0.8056 0.3852,0.9625 0.3378,2.1125 -0.1052,2.5556 -0.443,0.4431 -0.7582,-0.3445 -0.7003,-1.75 z m 364,-1.3333 c 0.064,-1.5534 0.3799,-1.8692 0.8055,-0.8056 0.3852,0.9625 0.3378,2.1125 -0.1052,2.5556 -0.443,0.443 -0.7582,-0.3446 -0.7003,-1.75 z m -316.772,-119.2223 c 1.3274,-1.4667 2.7134,-2.6667 3.08,-2.6667 0.3667,0 -0.4193,1.2 -1.7466,2.6667 -1.3273,1.4667 -2.7133,2.6667 -3.08,2.6667 -0.3667,0 0.4193,-1.2 1.7466,-2.6667 z m 801.3334,-206.6667 c -0.4532,-0.7333 -0.1887,-1.3333 0.588,-1.3333 0.7765,0 1.412,0.6 1.412,1.3333 0,0.7334 -0.2645,1.3334 -0.588,1.3334 -0.3233,0 -0.9588,-0.6 -1.412,-1.3334 z m -1275.3333,-58.7453 c 0,-0.7767 0.6,-1.0412 1.3333,-0.588 0.7333,0.4532 1.3333,1.0886 1.3333,1.412 0,0.3234 -0.6,0.588 -1.3333,0.588 -0.7333,0 -1.3333,-0.6354 -1.3333,-1.412 z m 1216.6666,0.079 c 0.4532,-0.7334 1.0887,-1.3334 1.412,-1.3334 0.3234,0 0.588,0.6 0.588,1.3334 0,0.7333 -0.6354,1.3333 -1.412,1.3333 -0.7766,0 -1.0412,-0.6 -0.588,-1.3333 z m 116.6667,-0.079 c 0,-0.7766 0.6,-1.0412 1.3333,-0.588 0.7334,0.4532 1.3334,1.0887 1.3334,1.412 0,0.3234 -0.6,0.588 -1.3334,0.588 -0.7333,0 -1.3333,-0.6354 -1.3333,-1.412 z m 1216.6668,0.079 c 0.4532,-0.7334 1.0886,-1.3334 1.412,-1.3334 0.3234,0 0.588,0.6 0.588,1.3334 0,0.7333 -0.6355,1.3333 -1.412,1.3333 -0.7767,0 -1.0412,-0.6 -0.588,-1.3333 z m -1274.6668,-58.6667 c 0.4532,-0.7334 1.0887,-1.3334 1.412,-1.3334 0.3235,0 0.588,0.6 0.588,1.3334 0,0.7333 -0.6355,1.3333 -1.412,1.3333 -0.7767,0 -1.0412,-0.6 -0.588,-1.3333 z m 0,-96.00015 c -0.4532,-0.73333 -0.1887,-1.33333 0.588,-1.33333 0.7765,0 1.412,0.6 1.412,1.33333 0,0.73333 -0.2645,1.33333 -0.588,1.33333 -0.3233,0 -0.9588,-0.6 -1.412,-1.33333 z M -3087.6531,812.06838 c 0,-1.83333 0.3026,-2.58333 0.6725,-1.66666 0.3699,0.91666 0.3699,2.41666 0,3.33333 -0.3699,0.91667 -0.6725,0.16667 -0.6725,-1.66667 z m 1035.9999,0 c 0,-1.83333 0.3027,-2.58333 0.6726,-1.66666 0.3698,0.91666 0.3698,2.41666 0,3.33333 -0.3699,0.91667 -0.6726,0.16667 -0.6726,-1.66667 z m 148.4562,-34.66666 c 0.4532,-0.73334 1.0887,-1.33334 1.412,-1.33334 0.3235,0 0.588,0.6 0.588,1.33334 0,0.73333 -0.6355,1.33333 -1.412,1.33333 -0.7767,0 -1.0412,-0.6 -0.588,-1.33333 z M -3103.5543,566.735 c 0,-2.5666 0.2744,-3.6166 0.6097,-2.3333 0.3354,1.2833 0.3354,3.3833 0,4.6667 -0.3353,1.2833 -0.6097,0.2333 -0.6097,-2.3334 z m 1067.9999,0 c 0,-2.5666 0.2744,-3.6166 0.6098,-2.3333 0.3354,1.2833 0.3354,3.3833 0,4.6667 -0.3354,1.2833 -0.6098,0.2333 -0.6098,-2.3334 z m -1052.3093,-3.9213 c 0,-2.1567 0.45,-4.1994 1,-4.5393 0.55,-0.3399 1,1.4247 1,3.9213 0,2.4966 -0.45,4.5393 -1,4.5393 -0.55,0 -1,-1.7645 -1,-3.9213 z m 1035.3333,-0.618 c 0,-2.4966 0.45,-4.2612 1,-3.9213 0.55,0.3399 1,2.3826 1,4.5393 0,2.1568 -0.45,3.9213 -1,3.9213 -0.55,0 -1,-2.0427 -1,-4.5393 z M -3086.9748,313.8461 c -1.2214,-1.2214 -1.1264,-8.4444 0.1111,-8.4444 0.55,0 1,2.1 1,4.6667 0,2.5666 -0.05,4.6666 -0.111,4.6666 -0.061,0 -0.5111,-0.4 -1,-0.8889 z m 1034.4444,-3.9051 c 0,-2.4966 0.45,-4.5393 1,-4.5393 0.55,0 1,1.7646 1,3.9213 0,2.1567 -0.45,4.1994 -1,4.5394 -0.55,0.3399 -1,-1.4247 -1,-3.9214 z m -1051.0239,-4.5393 c 0,-2.5667 0.2744,-3.6167 0.6097,-2.3333 0.3354,1.2833 0.3354,3.3833 0,4.6666 -0.3353,1.2834 -0.6097,0.2334 -0.6097,-2.3333 z m 1067.9999,0 c 0,-2.5667 0.2744,-3.6167 0.6098,-2.3333 0.3354,1.2833 0.3354,3.3833 0,4.6666 -0.3354,1.2834 -0.6098,0.2334 -0.6098,-2.3333 z m 1025.0241,-127.1701 c 0,-0.2768 1.05,-1.3268 2.3333,-2.3333 2.1148,-1.6585 2.1619,-1.6113 0.5035,0.5034 -1.7419,2.221 -2.8368,2.9273 -2.8368,1.8299 z M -1903.197,94.735019 c -0.4532,-0.7333 -0.1887,-1.3333 0.588,-1.3333 0.7765,0 1.412,0.6 1.412,1.3333 0,0.733403 -0.2645,1.333403 -0.588,1.333403 -0.3233,0 -0.9588,-0.6 -1.412,-1.333403 z m -1184.4561,-34.6666 c 0,-1.8334 0.3026,-2.5834 0.6725,-1.6667 0.3699,0.9167 0.3699,2.4167 0,3.3333 -0.3699,0.9167 -0.6725,0.1667 -0.6725,-1.6666 z m 1035.9999,0 c 0,-1.8334 0.3027,-2.5834 0.6726,-1.6667 0.3698,0.9167 0.3698,2.4167 0,3.3333 -0.3699,0.9167 -0.6726,0.1667 -0.6726,-1.6666 z"
         id="path84" />
      <path
         style="fill:#d42a27;fill-opacity:1;stroke-width:1.33333"
         d="m -2354.2637,2091.8019 c -3.74,-3.74 -0.9223,-10.4 4.4,-10.4 3.574,0 6,2.426 6,6 0,3.574 -2.426,6 -6,6 -1.54,0 -3.52,-0.72 -4.4,-1.6 z m 206.6667,0 c -3.74,-3.74 -0.9223,-10.4 4.4,-10.4 3.5739,0 6,2.426 6,6 0,3.574 -2.4261,6 -6,6 -1.54,0 -3.52,-0.72 -4.4,-1.6 z m 1121.3333,0 c -0.88,-0.88 -1.6,-2.86 -1.6,-4.4 0,-1.54 0.72,-3.52 1.6,-4.4 0.88,-0.88 2.86,-1.6 4.4,-1.6 1.54,0 3.52,0.72 4.4,1.6 0.88,0.88 1.6,2.86 1.6,4.4 0,1.54 -0.72,3.52 -1.6,4.4 -0.88,0.88 -2.86,1.6 -4.4,1.6 -1.54,0 -3.52,-0.72 -4.4,-1.6 z m 206.6668,0 c -0.88,-0.88 -1.6,-2.86 -1.6,-4.4 0,-1.54 0.72,-3.52 1.6,-4.4 0.88,-0.88 2.86,-1.6 4.4,-1.6 1.54,0 3.52,0.72 4.4,1.6 0.88,0.88 1.6,2.86 1.6,4.4 0,1.54 -0.72,3.52 -1.6,4.4 -0.88,0.88 -2.86,1.6 -4.4,1.6 -1.54,0 -3.52,-0.72 -4.4,-1.6 z m -2328.2668,-38.5199 v -38.7865 l -9.8041,8.7746 c -9.5945,8.5871 -9.8542,8.7194 -12.1471,6.1856 -2.5667,-2.8361 -3.9798,-1.205 19.5971,-22.6212 10.6123,-9.6396 10.3541,-10.65 10.3541,40.5255 v 44.7085 h -4 -4 z m 64.5516,36.3784 c -2.7416,-2.1717 -2.3618,-2.7633 26.2562,-40.8977 l 29.038,-38.6942 -27.2562,-0.3604 -27.2562,-0.3604 v -3.9962 -3.9962 l 33,0.3566 33,0.3566 -0.048,3.3334 c -0.032,2.2389 -9.824,16.2473 -29.8246,42.6666 -16.3774,21.6334 -30.756,40.3374 -31.9524,41.5644 -2.0244,2.0763 -2.3687,2.0782 -4.9573,0.028 z m 144.443,0.9605 c -16.951,-3.995 -31.8247,-18.8036 -35.7088,-35.5524 -0.9822,-4.2352 -0.9025,-4.3333 3.5213,-4.3333 3.5393,0 4.5263,0.546 4.5263,2.5039 0,8.441 11.3241,22.6916 22,27.6852 19.7439,9.2349 43.5115,-2.6774 50.2571,-25.1891 1.2612,-4.2088 2.0808,-5 5.1797,-5 3.6103,0 3.6549,0.096 2.3032,5 -4.8702,17.6676 -16.9248,29.9325 -33.6868,34.2748 -8.7683,2.2713 -11.0284,2.3464 -18.392,0.6109 z m 79.8943,0.5587 c -2.6739,-2.6739 1.184,-7.1312 21.7364,-25.1139 12.9368,-11.3193 23.4994,-21.6386 24.6667,-24.0984 5.1433,-10.8386 0.4475,-25.3228 -10.029,-30.9342 -7.5468,-4.0422 -17.9071,-3.628 -24.1184,0.9641 l -4.1061,3.0357 -2.6797,-2.6796 -2.6797,-2.6797 3.5059,-2.2972 c 16.8094,-11.0139 37.4716,-5.6125 45.6407,11.9309 5.7122,12.2674 3.1512,26.3928 -6.6162,36.4928 -3.0485,3.1524 -12.0372,10.9524 -19.9749,17.3334 l -14.432,11.6017 22.0987,0.3656 22.0987,0.3656 v 3.3011 3.301 h -27.1111 c -14.9111,0 -27.5111,-0.4 -28,-0.8889 z m 143.1111,-37.8976 v -38.7865 l -9.8041,8.7746 c -9.5945,8.5871 -9.8542,8.7194 -12.1471,6.1856 -2.5667,-2.8361 -3.9798,-1.205 19.5971,-22.6212 10.6122,-9.6396 10.3541,-10.65 10.3541,40.5255 v 44.7085 h -4 -4 z m 80.1828,36.9611 c -10.0935,-3.6528 -18.8141,-14.1895 -20.8865,-25.2366 -0.8957,-4.7741 -0.7979,-4.938 2.9454,-4.938 3.4467,0 4.0435,0.6415 5.4342,5.8411 2.0644,7.7188 6.9936,13.3477 14.3305,16.3649 5.0393,2.0723 5.9844,3.0394 5.9886,6.1274 0,4.0362 -1.0554,4.2862 -7.8122,1.8412 z m 14.4839,-1.8814 c 0,-3.0634 0.8379,-4.0605 4.5369,-5.3981 6.7524,-2.4416 11.5013,-6.6988 14.268,-12.7903 8.252,-18.1692 -6.8435,-38.4792 -25.9375,-34.897 -2.5082,0.4705 -7.1323,2.5829 -10.276,4.6942 -5.8986,3.9615 -9.2581,4.0795 -9.2581,0.3251 0,-1.1848 1.95,-7.1184 4.3333,-13.1859 4.1895,-10.6653 4.4772,-11.0317 8.6667,-11.0364 2.3833,0 4.3333,0.2455 4.3333,0.5514 0,0.3058 -1.1669,3.2784 -2.5931,6.6057 l -2.5932,6.0496 3.3467,-1.2724 c 8.8953,-3.382 22.2882,0.4393 30.5718,8.7228 18.1955,18.1956 9.4765,48.4013 -15.7322,54.5016 -3.3425,0.8089 -3.6666,0.5552 -3.6666,-2.8703 z m 118.6666,-35.0797 v -38.7865 l -9.8041,8.7746 c -9.5945,8.5871 -9.8542,8.7194 -12.1471,6.1856 -2.5667,-2.8361 -3.9798,-1.205 19.5971,-22.6212 10.6123,-9.6396 10.3541,-10.65 10.3541,40.5255 v 44.7085 h -4 -4 z m 96.888,30.4532 c 2.6423,-4.5833 5.8896,-10.1495 7.2163,-12.3691 l 2.4121,-4.0357 -10.2582,0.013 c -7.927,0.013 -11.4741,-0.6329 -15.609,-2.8301 -19.3431,-10.2788 -24.9666,-33.3185 -12.2173,-50.0555 4.131,-5.4229 11.2724,-10.3436 17.9015,-12.3346 2.6147,-0.7854 3,-0.4184 3,2.8577 0,3.1089 -1.0651,4.3239 -6.1598,7.0267 -19.3589,10.2698 -17.6123,38.3261 2.8729,46.1496 12.5661,4.7989 25.9745,-0.6102 31.5298,-12.7196 2.6069,-5.6824 3.634,-6.7024 6.7493,-6.7024 2.0209,0 3.6744,0.5609 3.6744,1.2465 0,2.9201 -3.5104,10.006 -15.0672,30.4131 -11.8668,20.9545 -12.4058,21.6597 -16.5576,21.6666 l -4.2914,0.013 4.8042,-8.3334 z m 103.7787,5.8257 c -6.3437,-2.913 -9.1865,-5.8865 -11.9491,-12.4984 -2.9236,-6.997 -2.6389,-8.994 1.2824,-8.994 2.2839,0 3.335,0.7347 3.3384,2.3334 0.01,3.9106 4.9644,10.7433 9.4903,13.0837 8.5842,4.4391 21.5719,-0.06 25.157,-8.7159 1.2262,-2.9601 2.5537,-4.0345 4.9854,-4.0345 2.4744,0 3.1092,0.5344 2.5049,2.1091 -0.4451,1.16 -0.8093,2.639 -0.8093,3.2869 0,2.5604 -8.9411,11.1577 -13.9885,13.4507 -6.7995,3.0889 -13.2538,3.0821 -20.0115,-0.021 z m 111.3333,-5.4924 v -8 h -23.17 c -24.7655,0 -27.3965,-0.6808 -25.5169,-6.6026 0.831,-2.6183 1.8509,-2.7307 24.7768,-2.7307 h 23.9101 v -20.6667 -20.6666 h 4.6667 4.6667 v 20.6666 20.6667 h 6.6666 6.6667 v 4.6667 4.6666 h -6.6667 -6.6666 v 8 8 h -4.6667 -4.6667 z m 90.8495,6.1746 c -10.0935,-3.6528 -18.8141,-14.1895 -20.8865,-25.2366 -0.8957,-4.7741 -0.7979,-4.938 2.9454,-4.938 3.4467,0 4.0435,0.6415 5.4342,5.8411 2.0644,7.7188 6.9936,13.3477 14.3305,16.3649 5.0393,2.0723 5.9844,3.0394 5.9886,6.1274 0.01,4.0362 -1.0554,4.2862 -7.8122,1.8412 z m 14.4839,-1.8814 c 0,-3.0634 0.8379,-4.0605 4.5369,-5.3981 6.7524,-2.4416 11.5013,-6.6988 14.268,-12.7903 8.252,-18.1692 -6.8435,-38.4792 -25.9375,-34.897 -2.5082,0.4705 -7.1323,2.5829 -10.276,4.6942 -5.8986,3.9615 -9.2581,4.0795 -9.2581,0.3251 0,-1.1848 1.95,-7.1184 4.3333,-13.1859 4.1895,-10.6653 4.4772,-11.0317 8.6667,-11.0364 2.3833,0 4.3333,0.2455 4.3333,0.5514 0,0.3058 -1.1669,3.2784 -2.5931,6.6057 l -2.5932,6.0496 3.3467,-1.2724 c 8.8953,-3.382 22.2882,0.4393 30.5718,8.7228 18.1955,18.1956 9.4765,48.4013 -15.7322,54.5016 -3.3425,0.8089 -3.6666,0.5552 -3.6666,-2.8703 z m 81.3333,1.5843 c -10.9313,-4.7276 -16.9887,-14.6369 -15.4045,-25.2007 0.8257,-5.5066 7.4593,-16.6768 9.9036,-16.6768 0.632,0 -0.7513,-2.015 -3.074,-4.4778 -7.024,-7.4476 -9.1376,-18.1759 -5.3614,-27.2135 3.3093,-7.9204 8.9263,-12.8864 17.603,-15.5629 2.6312,-0.8118 3,-0.4531 3,2.9174 0,3.0447 -0.9258,4.2844 -4.4571,5.9684 -7.765,3.7028 -11.1756,15.3878 -6.9029,23.6503 6.4422,12.4577 21.6111,12.4577 28.0533,0 4.4574,-8.6197 0.5768,-21.3609 -7.426,-24.3816 -3.0573,-1.154 -3.934,-2.3112 -3.934,-5.1925 0,-4.1952 0.9634,-4.4552 7.0637,-1.9064 5.5086,2.3017 12.1905,9.8989 14.2832,16.2397 2.8014,8.4884 -0.8545,22.1363 -7.2042,26.8935 l -2.8094,2.1048 4.0658,4.2914 c 5.1179,5.4023 7.7508,13.8632 6.5414,21.0216 -1.1033,6.5302 -8.3054,14.6736 -15.6072,17.6472 l -5,2.0362 v -3.8039 c 0,-2.7644 0.9117,-4.2192 3.3364,-5.324 1.8351,-0.8361 4.5328,-3.4824 5.9951,-5.8807 11.0729,-18.1613 -15.0364,-35.3525 -26.7363,-17.604 -5.1537,7.818 -1.4966,20.5434 6.8042,23.6766 3.0573,1.154 3.934,2.3112 3.934,5.1925 0,4.2477 -0.329,4.326 -6.6667,1.5852 z m 184,-36.664 v -38.7865 l -9.8041,8.7746 c -9.5945,8.5871 -9.8541,8.7194 -12.1471,6.1856 -2.5668,-2.8361 -3.9798,-1.205 19.5971,-22.6212 10.6123,-9.6396 10.3541,-10.65 10.3541,40.5255 v 44.7085 h -4 -4 z m 64.5515,36.3784 c -2.7415,-2.1717 -2.3617,-2.7633 26.2563,-40.8977 l 29.038,-38.6942 -27.2562,-0.3604 -27.2562,-0.3604 v -3.9962 -3.9962 l 33,0.3566 33,0.3566 -0.048,3.3334 c -0.032,2.2389 -9.824,16.2473 -29.8246,42.6666 -16.3773,21.6334 -30.756,40.3374 -31.9524,41.5644 -2.0244,2.0763 -2.3686,2.0782 -4.9573,0.028 z m 144.4431,0.9605 c -16.951,-3.995 -31.8247,-18.8036 -35.7088,-35.5524 -0.9822,-4.2352 -0.9024,-4.3333 3.5213,-4.3333 3.5392,0 4.5263,0.546 4.5263,2.5039 0,8.441 11.3241,22.6916 22,27.6852 19.7438,9.2349 43.5114,-2.6774 50.2572,-25.1891 1.2612,-4.2088 2.0808,-5 5.1797,-5 3.6103,0 3.6548,0.096 2.3032,5 -4.8703,17.6676 -16.9249,29.9325 -33.6869,34.2748 -8.7683,2.2713 -11.0284,2.3464 -18.392,0.6109 z m 79.8944,0.5587 c -2.674,-2.6739 1.1838,-7.1312 21.7364,-25.1139 12.9368,-11.3193 23.4994,-21.6386 24.6666,-24.0984 5.1432,-10.8386 0.4475,-25.3228 -10.0289,-30.9342 -7.5469,-4.0422 -17.9072,-3.628 -24.1184,0.9641 l -4.1061,3.0357 -2.6798,-2.6796 -2.6797,-2.6797 3.506,-2.2972 c 16.8093,-11.0139 37.4715,-5.6125 45.6405,11.9309 5.7123,12.2674 3.1514,26.3928 -6.6161,36.4928 -3.0485,3.1524 -12.0372,10.9524 -19.9748,17.3334 l -14.4321,11.6017 22.0988,0.3656 22.0986,0.3656 v 3.3011 3.301 h -27.111 c -14.9112,0 -27.5112,-0.4 -28,-0.8889 z m 143.111,-37.8976 v -38.7865 l -9.8041,8.7746 c -9.5945,8.5871 -9.8541,8.7194 -12.1471,6.1856 -2.5668,-2.8361 -3.9798,-1.205 19.5971,-22.6212 10.6123,-9.6396 10.3541,-10.65 10.3541,40.5255 v 44.7085 h -4 -4 z m 80.1828,36.9611 c -10.0934,-3.6528 -18.8141,-14.1895 -20.8865,-25.2366 -0.8956,-4.7741 -0.7979,-4.938 2.9455,-4.938 3.4466,0 4.0434,0.6415 5.4341,5.8411 2.0644,7.7188 6.9936,13.3477 14.3305,16.3649 5.0394,2.0723 5.9844,3.0394 5.9887,6.1274 0,4.0362 -1.0555,4.2862 -7.8123,1.8412 z m 14.4839,-1.8814 c 0,-3.0634 0.838,-4.0605 4.5369,-5.3981 6.7524,-2.4416 11.5014,-6.6988 14.268,-12.7903 8.252,-18.1692 -6.8434,-38.4792 -25.9374,-34.897 -2.5082,0.4705 -7.1324,2.5829 -10.276,4.6942 -5.8987,3.9615 -9.2582,4.0795 -9.2582,0.3251 0,-1.1848 1.95,-7.1184 4.3334,-13.1859 4.1894,-10.6653 4.4772,-11.0317 8.6666,-11.0364 2.3834,0 4.3334,0.2455 4.3334,0.5514 0,0.3058 -1.167,3.2784 -2.5932,6.6057 l -2.5931,6.0496 3.3465,-1.2724 c 8.8954,-3.382 22.2883,0.4393 30.5719,8.7228 18.1955,18.1956 9.4765,48.4013 -15.7321,54.5016 -3.3426,0.8089 -3.6667,0.5552 -3.6667,-2.8703 z m 118.6667,-35.0797 v -38.7865 l -9.8042,8.7746 c -9.5945,8.5871 -9.8541,8.7194 -12.147,6.1856 -2.5668,-2.8361 -3.9799,-1.205 19.597,-22.6212 10.6123,-9.6396 10.3542,-10.65 10.3542,40.5255 v 44.7085 h -4 -4 z m 96.8878,30.4532 c 2.6424,-4.5833 5.8898,-10.1495 7.2164,-12.3691 l 2.4122,-4.0357 -10.2583,0.013 c -7.9269,0.013 -11.4741,-0.6329 -15.6089,-2.8301 -19.3432,-10.2788 -24.9667,-33.3185 -12.2174,-50.0555 4.131,-5.4229 11.2724,-10.3436 17.9015,-12.3346 2.6148,-0.7854 3,-0.4184 3,2.8577 0,3.1089 -1.0651,4.3239 -6.1597,7.0267 -19.359,10.2698 -17.6124,38.3261 2.8729,46.1496 12.566,4.7989 25.9744,-0.6102 31.5297,-12.7196 2.607,-5.6824 3.634,-6.7024 6.7492,-6.7024 2.0211,0 3.6746,0.5609 3.6746,1.2465 0,2.9201 -3.5106,10.006 -15.0672,30.4131 -11.867,20.9545 -12.4059,21.6597 -16.5576,21.6666 l -4.2915,0.013 4.8041,-8.3334 z m 103.77881,5.8257 c -6.34371,-2.913 -9.18652,-5.8865 -11.94922,-12.4984 -2.92361,-6.997 -2.63881,-8.994 1.2826,-8.994 2.2838,0 3.33491,0.7347 3.33821,2.3334 0.013,3.9106 4.96441,10.7433 9.49041,13.0837 8.58432,4.4391 21.57194,-0.06 25.15715,-8.7159 1.2261,-2.9601 2.5536,-4.0345 4.98534,-4.0345 2.4744,0 3.1092,0.5344 2.505,2.1091 -0.4452,1.16 -0.8094,2.639 -0.8094,3.2869 0,2.5604 -8.94125,11.1577 -13.98855,13.4507 -6.79952,3.0889 -13.25373,3.0821 -20.01154,-0.021 z m 111.33349,-5.4924 v -8 h -23.1702 c -24.7654,0 -27.3964,-0.6808 -25.5168,-6.6026 0.831,-2.6183 1.851,-2.7307 24.7768,-2.7307 h 23.9102 v -20.6667 -20.6666 h 4.6666 4.6667 v 20.6666 20.6667 h 6.6667 6.6666 v 4.6667 4.6666 h -6.6666 -6.6667 v 8 8 h -4.6667 -4.6666 z m 96.9945,6.5524 c -16.9509,-3.995 -31.8247,-18.8036 -35.7088,-35.5524 -0.9821,-4.2352 -0.9024,-4.3333 3.5213,-4.3333 3.5392,0 4.5263,0.546 4.5263,2.5039 0,8.441 11.3241,22.6916 22,27.6852 19.7439,9.2349 43.5115,-2.6774 50.2572,-25.1891 1.2612,-4.2088 2.0808,-5 5.1797,-5 3.6103,0 3.6548,0.096 2.3032,5 -4.8702,17.6676 -16.9249,29.9325 -33.6869,34.2748 -8.7683,2.2713 -11.0284,2.3464 -18.392,0.6109 z m 97.3333,0 c -16.9509,-3.995 -31.8246,-18.8036 -35.7088,-35.5524 -0.9821,-4.2352 -0.9024,-4.3333 3.5214,-4.3333 3.5392,0 4.5262,0.546 4.5262,2.5039 0,8.441 11.3242,22.6916 22,27.6852 19.7439,9.2349 43.5115,-2.6774 50.2572,-25.1891 1.2612,-4.2088 2.0808,-5 5.1798,-5 3.6102,0 3.6548,0.096 2.3032,5 -4.8703,17.6676 -16.925,29.9325 -33.687,34.2748 -8.7682,2.2713 -11.0284,2.3464 -18.392,0.6109 z m -1606.3423,-29.2536 c -1.9768,-4.7725 -7.4776,-8.9972 -13.2068,-10.143 -3.4037,-0.6807 -4.1122,-1.4574 -4.1122,-4.5074 0,-3.1898 0.6591,-3.8085 4.9052,-4.6052 5.3029,-0.9948 13.7615,-8.3153 13.7615,-11.9098 0,-1.3867 1.1667,-2.1334 3.3333,-2.1334 1.8334,0 3.3334,0.6194 3.3334,1.3762 0,3.5062 -4.053,10.4314 -8.0963,13.8336 l -4.4589,3.7518 3.6482,2.6576 c 3.6176,2.6352 6.3793,6.9376 8.1612,12.7142 0.7853,2.5457 0.4316,3 -2.336,3 -2.3729,0 -3.7167,-1.0991 -4.9326,-4.0346 z m 1328.00016,0 c -1.9768,-4.7725 -7.47771,-8.9972 -13.20683,-10.143 -3.4037,-0.6807 -4.1123,-1.4574 -4.1123,-4.5074 0,-3.1898 0.6591,-3.8085 4.90521,-4.6052 5.30281,-0.9948 13.76152,-8.3153 13.76152,-11.9098 0,-1.3867 1.1667,-2.1334 3.33334,-2.1334 1.8334,0 3.3334,0.6194 3.3334,1.3762 0,3.5062 -4.053,10.4314 -8.09634,13.8336 l -4.45891,3.7518 3.64821,2.6576 c 3.6176,2.6352 6.37944,6.9376 8.16124,12.7142 0.7854,2.5457 0.4316,3 -2.336,3 -2.37294,0 -3.71664,-1.0991 -4.93254,-4.0346 z m -1284.46366,-2.9654 c 0.557,-0.9167 9.9153,-14.0756 20.7962,-29.2422 l 19.7833,-27.5754 3.8478,2.2082 c 2.1493,1.2336 3.4511,2.8512 2.9492,3.6647 -0.4943,0.8009 -9.217,12.9661 -19.3839,27.0339 l -18.4852,25.5774 h -5.2601 c -3.8594,0 -4.9905,-0.4438 -4.2473,-1.6666 z m 1328.0001,0 c 0.5571,-0.9167 9.9153,-14.0756 20.7961,-29.2422 l 19.7834,-27.5754 3.8478,2.2082 c 2.1492,1.2336 3.4511,2.8512 2.9492,3.6647 -0.4942,0.8009 -9.217,12.9661 -19.3838,27.0339 l -18.4852,25.5774 h -5.2602 c -3.8594,0 -4.9905,-0.4438 -4.2473,-1.6666 z m -1451.2556,-14.6 c -3.74,-3.74 -0.9223,-10.4 4.4,-10.4 3.574,0 6,2.426 6,6 0,3.574 -2.426,6 -6,6 -1.54,0 -3.52,-0.72 -4.4,-1.6 z m 206.6667,0 c -3.74,-3.74 -0.9223,-10.4 4.4,-10.4 3.5739,0 6,2.426 6,6 0,3.574 -2.4261,6 -6,6 -1.54,0 -3.52,-0.72 -4.4,-1.6 z m 1121.3333,0 c -0.88,-0.88 -1.6,-2.86 -1.6,-4.4 0,-1.54 0.72,-3.52 1.6,-4.4 0.88,-0.88 2.86,-1.6 4.4,-1.6 1.54,0 3.52,0.72 4.4,1.6 0.88,0.88 1.6,2.86 1.6,4.4 0,1.54 -0.72,3.52 -1.6,4.4 -0.88,0.88 -2.86,1.6 -4.4,1.6 -1.54,0 -3.52,-0.72 -4.4,-1.6 z m 206.6668,0 c -0.88,-0.88 -1.6,-2.86 -1.6,-4.4 0,-1.54 0.72,-3.52 1.6,-4.4 0.88,-0.88 2.86,-1.6 4.4,-1.6 1.54,0 3.52,0.72 4.4,1.6 0.88,0.88 1.6,2.86 1.6,4.4 0,1.54 -0.72,3.52 -1.6,4.4 -0.88,0.88 -2.86,1.6 -4.4,1.6 -1.54,0 -3.52,-0.72 -4.4,-1.6 z m -2154.8958,-7.8644 c 3.5721,-12.4555 12.4212,-23.3144 23.6795,-29.058 7.608,-3.8812 21.3694,-5.8431 28.9971,-4.1336 16.908,3.7892 30.6872,16.5029 35.0312,32.3226 1.348,4.9091 1.3054,5 -2.3385,5 -3.1608,0 -4.0455,-0.8749 -5.9641,-5.8988 -3.9236,-10.2736 -9.1979,-16.152 -18.6813,-20.8206 -8.0416,-3.9588 -9.5164,-4.2495 -18.6067,-3.666 -7.4941,0.4809 -11.3256,1.4848 -15.9019,4.1668 -7.9032,4.6314 -14.9266,12.9814 -17.0942,20.3225 -1.5907,5.3875 -2.1104,5.8961 -6.0234,5.8961 -4.1546,0 -4.2471,-0.1226 -3.0977,-4.131 z m 1328,0 c 3.5721,-12.4555 12.4212,-23.3144 23.6794,-29.058 7.608,-3.8812 21.3695,-5.8431 28.9971,-4.1336 16.9081,3.7892 30.6873,16.5029 35.0313,32.3226 1.348,4.9091 1.3055,5 -2.3384,5 -3.1609,0 -4.0456,-0.8749 -5.9642,-5.8988 -3.9235,-10.2736 -9.1979,-16.152 -18.6812,-20.8206 -8.0418,-3.9588 -9.5166,-4.2495 -18.6068,-3.666 -7.4942,0.4809 -11.3256,1.4848 -15.9019,4.1668 -7.9032,4.6314 -14.9267,12.9814 -17.0941,20.3225 -1.5908,5.3875 -2.1104,5.8961 -6.0235,5.8961 -4.1545,0 -4.2471,-0.1226 -3.0977,-4.131 z m 845.3334,0 c 3.5721,-12.4555 12.4212,-23.3144 23.6795,-29.058 7.608,-3.8812 21.3694,-5.8431 28.997,-4.1336 16.9082,3.7892 30.6874,16.5029 35.0314,32.3226 1.348,4.9091 1.3054,5 -2.3384,5 -3.161,0 -4.0456,-0.8749 -5.9643,-5.8988 -3.9235,-10.2736 -9.1979,-16.152 -18.6812,-20.8206 -8.0417,-3.9588 -9.5165,-4.2495 -18.6068,-3.666 -7.4941,0.4809 -11.3256,1.4848 -15.9019,4.1668 -7.9032,4.6314 -14.9266,12.9814 -17.0941,20.3225 -1.5908,5.3875 -2.1104,5.8961 -6.0235,5.8961 -4.1545,0 -4.247,-0.1226 -3.0977,-4.131 z m 97.3333,0 c 3.5722,-12.4555 12.4212,-23.3144 23.6795,-29.058 7.608,-3.8812 21.3695,-5.8431 28.9971,-4.1336 16.9081,3.7892 30.6873,16.5029 35.0313,32.3226 1.348,4.9091 1.3055,5 -2.3384,5 -3.1609,0 -4.0456,-0.8749 -5.9643,-5.8988 -3.9234,-10.2736 -9.1978,-16.152 -18.6812,-20.8206 -8.0417,-3.9588 -9.5165,-4.2495 -18.6068,-3.666 -7.4941,0.4809 -11.3256,1.4848 -15.9018,4.1668 -7.9032,4.6314 -14.9267,12.9814 -17.0942,20.3225 -1.5908,5.3875 -2.1104,5.8961 -6.0234,5.8961 -4.1546,0 -4.2471,-0.1226 -3.0978,-4.131 z m -1679.3185,-8.9634 c -1.2033,-5.4785 -7.9753,-13.0512 -14.0801,-15.7445 -4.382,-1.9333 -5.3058,-2.9971 -5.3058,-6.1097 0,-3.4231 0.3364,-3.693 3.6667,-2.9416 10.6572,2.4044 21.7145,13.6545 23.8082,24.2236 0.8179,4.1282 0.6663,4.3333 -3.2022,4.3333 -3.3705,0 -4.2012,-0.6393 -4.8868,-3.7611 z m 1328,0 c -1.2033,-5.4785 -7.9753,-13.0512 -14.0801,-15.7445 -4.382,-1.9333 -5.3057,-2.9971 -5.3057,-6.1097 0,-3.4231 0.3364,-3.693 3.6666,-2.9416 10.6572,2.4044 21.7144,13.6545 23.8083,24.2236 0.8177,4.1282 0.6663,4.3333 -3.2023,4.3333 -3.3705,0 -4.2012,-0.6393 -4.8868,-3.7611 z m -1260.7192,-3.615 c 0,-2.9907 3.7472,-11.4604 6.3842,-14.43 3.1081,-3.5003 12.0768,-7.4639 16.9492,-7.4906 11.4568,-0.063 22.5784,7.3062 24.5967,16.2967 1.0432,4.6471 0.9073,5 -1.9259,5 -2.0603,0 -3.2955,-0.9844 -3.8106,-3.0369 -0.4193,-1.6704 -2.5563,-4.7558 -4.7489,-6.8564 -5.0831,-4.8699 -14.8539,-6.1816 -21.2828,-2.8571 -4.5259,2.3404 -9.4819,9.1731 -9.4902,13.0837 0,1.5987 -1.0545,2.3334 -3.3384,2.3334 -2.1051,0 -3.3333,-0.7527 -3.3333,-2.0428 z m 1327.99998,0 c 0,-2.9907 3.74721,-11.4604 6.38422,-14.43 3.1082,-3.5003 12.07682,-7.4639 16.94923,-7.4906 11.45692,-0.063 22.57847,7.3062 24.59667,16.2967 1.0434,4.6471 0.9074,5 -1.9258,5 -2.06034,0 -3.29554,-0.9844 -3.81074,-3.0369 -0.4192,-1.6704 -2.5561,-4.7558 -4.74881,-6.8564 -5.08311,-4.8699 -14.85392,-6.1816 -21.28284,-2.8571 -4.5259,2.3404 -9.48191,9.1731 -9.49031,13.0837 0,1.5987 -1.05441,2.3334 -3.33821,2.3334 -2.1051,0 -3.33341,-0.7527 -3.33341,-2.0428 z m -1646.93798,-17.9488 2.2713,-3.9916 18.3334,-0.013 18.3333,-0.013 v 4 4 h -20.6046 -20.6047 l 2.2713,-3.9916 z m 536,0 2.2713,-3.9916 18.3334,-0.013 18.3333,-0.013 v 4 4 h -20.6046 -20.6047 l 2.2713,-3.9916 z m 792,0 2.2714,-3.9916 18.3333,-0.013 18.3333,-0.013 v 4 4 h -20.6046 -20.6047 l 2.2713,-3.9916 z m -1275.7378,-231.6751 c -0.01,-54.0833 0,-181.832 0.01,-283.8859 0.014,-147.7456 -0.3232,-185.6901 -1.6575,-186.228 -1.3309,-0.5366 -1.3328,-0.6972 -0.01,-0.7808 1.3166,-0.083 1.6667,-19.8503 1.6667,-94.1053 v -94 h 13.3333 13.3333 v 93.8889 c 0,73.8635 0.3555,94.0323 1.6667,94.5614 1.3271,0.5355 1.3253,0.6939 -0.01,0.7778 -1.337,0.084 -1.6721,37.6344 -1.6575,185.7719 0.011,102.1167 0.014,229.9167 0.01,284 l -0.01,98.3333 h -13.3333 -13.3334 l -0.01,-98.3333 z m 1192.1652,-113.3333 c -2.4318,-2.0222 -3.1552,-5.4232 -5.4243,-25.4988 -1.44,-12.741 -2.8793,-23.4266 -3.1985,-23.7458 -0.3192,-0.3192 -10.9948,-1.7173 -23.7235,-3.107 -20.3833,-2.2254 -23.4213,-2.8695 -25.4764,-5.4019 -3.0024,-3.6997 -2.9443,-4.4299 0.6667,-8.3779 3.8345,-4.1925 119.8197,-64.8686 123.9993,-64.8686 4.0243,0 6.334,2.3488 6.334,6.4413 0,4.3004 -60.5605,120.0387 -64.8271,123.892 -3.9981,3.6109 -4.7384,3.67 -8.3502,0.6667 z m 300.7126,-0.6667 c -4.1925,-3.8345 -64.8686,-119.8197 -64.8686,-123.9993 0,-3.9916 2.3424,-6.334 6.334,-6.334 4.1796,0 120.1648,60.6761 123.9993,64.8686 3.6109,3.948 3.6691,4.6782 0.6667,8.3779 -2.0551,2.5324 -5.0931,3.1765 -25.4764,5.4019 -12.7287,1.3897 -23.4143,2.7978 -23.7459,3.1293 -0.3315,0.3316 -1.7396,11.0172 -3.1293,23.7459 -2.2254,20.3833 -2.8695,23.4213 -5.4019,25.4764 -3.6997,3.0024 -4.4299,2.9442 -8.3779,-0.6667 z m -1670.0967,-152.4444 c 0.064,-1.5533 0.3799,-1.8692 0.8055,-0.8056 0.3852,0.9625 0.3378,2.1125 -0.1052,2.5556 -0.443,0.4431 -0.7582,-0.3445 -0.7003,-1.75 z m 0,-28 c 0.064,-1.5533 0.3799,-1.8692 0.8055,-0.8056 0.3852,0.9625 0.3378,2.1125 -0.1052,2.5556 -0.443,0.4431 -0.7582,-0.3445 -0.7003,-1.75 z m 1373.2867,-85.1305 c -52.9036,-27.7982 -64.0586,-34.4314 -64.0586,-38.0918 0,-0.5708 1.05,-2.3006 2.3333,-3.844 2.0221,-2.4317 5.4232,-3.1552 25.4988,-5.4242 12.7409,-1.44 23.4165,-2.8693 23.7235,-3.1762 0.3069,-0.3069 1.7361,-10.9825 3.1761,-23.7235 2.2691,-20.0755 2.9925,-23.4766 5.4243,-25.4987 3.6125,-3.0039 4.3566,-2.9444 8.3281,0.6666 4.2321,3.8479 64.8492,119.7012 64.8492,123.9419 0,4.1409 -2.354,6.4033 -6.6,6.3436 -1.87,-0.027 -30.0736,-14.0635 -62.6747,-31.1937 z m 233.5414,29.6416 c -0.88,-0.88 -1.6,-3.0103 -1.6,-4.734 0,-4.1796 60.6761,-120.1648 64.8686,-123.9994 3.948,-3.6109 4.6782,-3.669 8.3779,-0.6666 2.5324,2.055 3.1765,5.093 5.4019,25.4764 1.3897,12.7287 2.7878,23.4042 3.107,23.7234 0.3192,0.3192 11.0048,1.7586 23.7458,3.1986 20.0756,2.269 23.4766,2.9925 25.4988,5.4242 3.0033,3.6119 2.9442,4.3522 -0.6667,8.3503 -3.8533,4.2666 -119.5916,64.8271 -123.892,64.8271 -1.7828,0 -3.9613,-0.72 -4.8413,-1.6 z m -1204.0001,-389.3334 c -0.88,-0.88 -1.6,-2.86 -1.6,-4.4 0,-1.54 0.72,-3.52 1.6,-4.4 0.88,-0.88 2.86,-1.6 4.4,-1.6 1.54,0 3.52,0.72 4.4,1.6 0.88,0.88 1.6,2.86 1.6,4.4 0,1.54 -0.72,3.52 -1.6,4.4 -0.88,0.88 -2.86,1.6 -4.4,1.6 -1.54,0 -3.52,-0.72 -4.4,-1.6 z m 206.6667,0 c -0.88,-0.88 -1.6,-2.86 -1.6,-4.4 0,-1.54 0.72,-3.52 1.6,-4.4 0.88,-0.88 2.86,-1.6 4.4,-1.6 1.54,0 3.52,0.72 4.4,1.6 0.88,0.88 1.6,2.86 1.6,4.4 0,1.54 -0.72,3.52 -1.6,4.4 -0.88,0.88 -2.86,1.6 -4.4,1.6 -1.54,0 -3.52,-0.72 -4.4,-1.6 z m 1129.3334,0 c -3.74,-3.74 -0.9223,-10.4 4.4,-10.4 3.574,0 6,2.4261 6,6 0,3.5739 -2.426,6 -6,6 -1.54,0 -3.52,-0.72 -4.4,-1.6 z m 206.6667,0 c -3.74,-3.74 -0.9222,-10.4 4.4,-10.4 3.574,0 6,2.4261 6,6 0,3.5739 -2.426,6 -6,6 -1.54,0 -3.52,-0.72 -4.4,-1.6 z M -3150.5303,995.94855 V 957.162 l -9.8041,8.77462 c -9.5946,8.58707 -9.8542,8.7193 -12.1471,6.18568 -2.5668,-2.83622 -3.9798,-1.20512 19.597,-22.6212 10.6123,-9.63966 10.3542,-10.65 10.3542,40.52545 v 44.70865 h -4 -4 z m 64.5515,36.37855 c -2.7416,-2.1718 -2.3617,-2.7634 26.2562,-40.8979 l 29.0381,-38.69415 -27.2563,-0.36039 -27.2562,-0.36038 v -3.99624 -3.99624 l 33,0.35662 33,0.35663 -0.048,3.33333 c -0.032,2.23892 -9.824,16.24739 -29.8245,42.66667 -16.3774,21.63335 -30.756,40.33745 -31.9525,41.56455 -2.0243,2.0762 -2.3687,2.0781 -4.9573,0.028 z m 143.1097,0.9605 c -16.951,-3.995 -31.8247,-18.8037 -35.7088,-35.55255 -0.9822,-4.23524 -0.9025,-4.33333 3.5213,-4.33333 3.5393,0 4.5263,0.546 4.5263,2.50383 0,8.44115 11.3241,22.69175 22,27.68525 19.7439,9.2351 43.5115,-2.6773 50.2571,-25.18902 1.2612,-4.20883 2.0808,-5.00006 5.1797,-5.00006 3.6103,0 3.6549,0.0967 2.3032,5.00006 -4.8702,17.66762 -16.9248,29.93262 -33.6868,34.27482 -8.7683,2.2714 -11.0284,2.3465 -18.392,0.611 z m 81.2276,0.5587 c -2.6739,-2.6739 1.184,-7.1313 21.7364,-25.1141 12.9369,-11.31935 23.4995,-21.63855 24.6667,-24.0983 5.1433,-10.83868 0.4475,-25.3229 -10.0289,-30.93425 -7.5469,-4.0422 -17.9072,-3.62807 -24.1184,0.96408 l -4.1061,3.03577 -2.6797,-2.67969 -2.6797,-2.67971 3.5058,-2.29714 c 16.8094,-11.01392 37.4716,-5.61262 45.6407,11.93094 5.7122,12.26727 3.1513,26.3927 -6.6161,36.49278 -3.0486,3.15242 -12.0373,10.95242 -19.9749,17.33342 l -14.4321,11.6017 22.0987,0.3656 22.0987,0.3656 v 3.3011 3.3011 h -27.1111 c -14.9111,0 -27.5111,-0.4 -28,-0.8889 z m 143.1111,-37.89775 V 957.162 l -9.8041,8.77462 c -9.5945,8.58707 -9.8542,8.7193 -12.1471,6.18568 -2.5667,-2.83622 -3.9798,-1.20512 19.5971,-22.6212 10.6123,-9.63966 10.3541,-10.65 10.3541,40.52545 v 44.70865 h -4 -4 z m 80.1828,36.96105 c -10.0935,-3.6526 -18.8141,-14.1895 -20.8865,-25.2366 -0.8956,-4.7741 -0.7979,-4.938 2.9455,-4.938 3.4466,0 4.0434,0.6415 5.4341,5.8412 2.0644,7.7188 6.9936,13.3477 14.3305,16.3649 5.0393,2.0724 5.9844,3.0394 5.9886,6.1274 0,4.0363 -1.0554,4.2863 -7.8122,1.8411 z m 14.4839,-1.8812 c 0,-3.0635 0.8379,-4.0605 4.5369,-5.3981 6.7524,-2.4417 11.5014,-6.6989 14.268,-12.7904 8.2521,-18.16927 -6.8434,-38.47921 -25.9375,-34.89714 -2.5081,0.47052 -7.1323,2.58293 -10.276,4.69424 -5.8986,3.96154 -9.2581,4.07953 -9.2581,0.32516 0,-1.18483 1.95,-7.11847 4.3334,-13.18586 4.1895,-10.6654 4.4772,-11.03177 8.6666,-11.03644 2.3834,-0.003 4.3334,0.24544 4.3334,0.55131 0,0.30588 -1.1669,3.27845 -2.5932,6.60572 l -2.5931,6.0496 3.3466,-1.27239 c 8.8953,-3.382 22.2882,0.43934 30.5718,8.72288 18.1955,18.19557 9.4765,48.40142 -15.7321,54.50172 -3.3425,0.8088 -3.6667,0.5551 -3.6667,-2.8703 z m 118.6667,-35.07985 V 957.162 l -9.8041,8.77462 c -9.5946,8.58707 -9.8542,8.7193 -12.1471,6.18568 -2.5668,-2.83622 -3.9798,-1.20512 19.597,-22.6212 10.6123,-9.63966 10.3542,-10.65 10.3542,40.52545 v 44.70865 h -4 -4 z m 96.8879,30.45325 c 2.6423,-4.5833 5.8897,-10.1494 7.2163,-12.3691 l 2.4121,-4.0358 -10.2581,0.013 c -7.9271,0.011 -11.4742,-0.633 -15.609,-2.8302 -19.3432,-10.27875 -24.9667,-33.31855 -12.2173,-50.05541 4.1309,-5.42296 11.2724,-10.34366 17.9014,-12.3347 2.6148,-0.78535 3,-0.41836 3,2.85774 0,3.10888 -1.0651,4.32383 -6.1598,7.02658 -19.3589,10.26985 -17.6123,38.32623 2.873,46.14969 12.566,4.7989 25.9745,-0.6102 31.5297,-12.71964 2.6069,-5.68245 3.634,-6.7024 6.7493,-6.7024 2.021,0 3.6745,0.56095 3.6745,1.24653 0,2.92018 -3.5105,10.00602 -15.0673,30.41301 -11.8668,20.9547 -12.4057,21.6599 -16.5575,21.6668 l -4.2915,0.01 4.8042,-8.3334 z m 103.7787,5.8257 c -6.3437,-2.913 -9.1865,-5.8865 -11.9491,-12.4983 -2.9236,-6.9972 -2.6389,-8.9941 1.2825,-8.9941 2.2838,0 3.3349,0.7347 3.3383,2.3333 0.01,3.9108 4.9644,10.7434 9.4903,13.0839 8.5843,4.439 21.5719,-0.061 25.1571,-8.7159 1.2261,-2.9603 2.5537,-4.0346 4.9854,-4.0346 2.4743,0 3.1091,0.5344 2.5049,2.109 -0.4452,1.16 -0.8093,2.6391 -0.8093,3.287 0,2.5603 -8.9412,11.1577 -13.9886,13.4507 -6.7994,3.0889 -13.2538,3.0822 -20.0115,-0.021 z m 90.6667,0 c -6.3437,-2.913 -9.1865,-5.8865 -11.9491,-12.4983 -2.9236,-6.9972 -2.6389,-8.9941 1.2824,-8.9941 2.2839,0 3.335,0.7347 3.3384,2.3333 0.01,3.9108 4.9644,10.7434 9.4903,13.0839 8.5842,4.439 21.5719,-0.061 25.157,-8.7159 1.2262,-2.9603 2.5537,-4.0346 4.9854,-4.0346 2.4744,0 3.1092,0.5344 2.5049,2.109 -0.4451,1.16 -0.8093,2.6391 -0.8093,3.287 0,2.5603 -8.9411,11.1577 -13.9885,13.4507 -6.7995,3.0889 -13.2538,3.0822 -20.0115,-0.021 z m 122,-36.27895 V 957.162 l -9.8041,8.77462 c -9.5945,8.58707 -9.8542,8.7193 -12.1471,6.18568 -2.5667,-2.83622 -3.9798,-1.20512 19.5971,-22.6212 10.6122,-9.63966 10.3541,-10.65 10.3541,40.52545 v 44.70865 h -4 -4 z m 86.3279,37.33905 c -16.951,-3.995 -31.8247,-18.8037 -35.7088,-35.55255 -0.9822,-4.23524 -0.9025,-4.33333 3.5213,-4.33333 3.5393,0 4.5263,0.546 4.5263,2.50383 0,8.44115 11.3241,22.69175 22,27.68525 19.7439,9.2351 43.5115,-2.6773 50.2572,-25.18902 1.2611,-4.20883 2.0808,-5.00006 5.1797,-5.00006 3.6103,0 3.6548,0.0967 2.3032,5.00006 -4.8702,17.66762 -16.9249,29.93262 -33.6869,34.27482 -8.7683,2.2714 -11.0284,2.3465 -18.392,0.611 z m 191.0055,-37.33905 V 957.162 l -9.8042,8.77462 c -9.5945,8.58707 -9.8541,8.7193 -12.147,6.18568 -2.5668,-2.83622 -3.9799,-1.20512 19.597,-22.6212 10.6123,-9.63966 10.3542,-10.65 10.3542,40.52545 v 44.70865 h -4 -4 z m 64.5514,36.37855 c -2.7414,-2.1718 -2.3617,-2.7634 26.2563,-40.8979 l 29.038,-38.69415 -27.2561,-0.36039 -27.2563,-0.36038 v -3.99624 -3.99624 l 33,0.35662 33,0.35663 -0.048,3.33333 c -0.032,2.23892 -9.824,16.24739 -29.8245,42.66667 -16.3774,21.63335 -30.756,40.33745 -31.9524,41.56455 -2.0244,2.0762 -2.3687,2.0781 -4.9574,0.028 z m 144.4431,0.9605 c -16.9509,-3.995 -31.8247,-18.8037 -35.7088,-35.55255 -0.9821,-4.23524 -0.9024,-4.33333 3.5213,-4.33333 3.5392,0 4.5263,0.546 4.5263,2.50383 0,8.44115 11.3241,22.69175 22,27.68525 19.7439,9.2351 43.5115,-2.6773 50.2572,-25.18902 1.2612,-4.20883 2.0808,-5.00006 5.1797,-5.00006 3.6103,0 3.6548,0.0967 2.3032,5.00006 -4.8702,17.66762 -16.9249,29.93262 -33.6869,34.27482 -8.7683,2.2714 -11.0284,2.3465 -18.392,0.611 z m 79.8944,0.5587 c -2.674,-2.6739 1.1839,-7.1313 21.7364,-25.1141 12.9368,-11.31935 23.4995,-21.63855 24.6667,-24.0983 5.1432,-10.83868 0.4474,-25.3229 -10.029,-30.93425 -7.5469,-4.0422 -17.9072,-3.62807 -24.1184,0.96408 l -4.1061,3.03577 -2.6797,-2.67969 -2.6798,-2.67971 3.506,-2.29714 c 16.8094,-11.01392 37.4715,-5.61262 45.6406,11.93094 5.7122,12.26727 3.1513,26.3927 -6.6162,36.49278 -3.0485,3.15242 -12.0372,10.95242 -19.9748,17.33342 l -14.4321,11.6017 22.0988,0.3656 22.0987,0.3656 v 3.3011 3.3011 h -27.1111 c -14.9112,0 -27.5112,-0.4 -28,-0.8889 z m 143.1111,-37.89775 V 957.162 l -9.8042,8.77462 c -9.5945,8.58707 -9.8541,8.7193 -12.147,6.18568 -2.5668,-2.83622 -3.9799,-1.20512 19.597,-22.6212 10.6123,-9.63966 10.3542,-10.65 10.3542,40.52545 v 44.70865 h -4 -4 z m 80.1828,36.96105 c -10.0935,-3.6526 -18.8142,-14.1895 -20.8866,-25.2366 -0.8956,-4.7741 -0.7978,-4.938 2.9455,-4.938 3.4467,0 4.0435,0.6415 5.4341,5.8412 2.0644,7.7188 6.9936,13.3477 14.3306,16.3649 5.0393,2.0724 5.9844,3.0394 5.9886,6.1274 0,4.0363 -1.0554,4.2863 -7.8122,1.8411 z m 14.4838,-1.8812 c 0,-3.0635 0.838,-4.0605 4.537,-5.3981 6.7524,-2.4417 11.5013,-6.6989 14.268,-12.7904 8.252,-18.16927 -6.8435,-38.47921 -25.9375,-34.89714 -2.5081,0.47052 -7.1324,2.58293 -10.276,4.69424 -5.8987,3.96154 -9.2581,4.07953 -9.2581,0.32516 0,-1.18483 1.95,-7.11847 4.3333,-13.18586 4.1895,-10.6654 4.4772,-11.03177 8.6667,-11.03644 2.3833,-0.003 4.3333,0.24544 4.3333,0.55131 0,0.30588 -1.1669,3.27845 -2.5932,6.60572 l -2.5931,6.0496 3.3466,-1.27239 c 8.8953,-3.382 22.2882,0.43934 30.5718,8.72288 18.1955,18.19557 9.4766,48.40142 -15.7321,54.50172 -3.3425,0.8088 -3.6667,0.5551 -3.6667,-2.8703 z m 118.6667,-35.07985 V 957.162 l -9.8041,8.77462 c -9.5946,8.58707 -9.8542,8.7193 -12.1471,6.18568 -2.5668,-2.83622 -3.9799,-1.20512 19.5971,-22.6212 10.6122,-9.63966 10.3541,-10.65 10.3541,40.52545 v 44.70865 h -4 -4 z m 96.8879,30.45325 c 2.6424,-4.5833 5.8897,-10.1494 7.2164,-12.3691 l 2.4121,-4.0358 -10.2583,0.013 c -7.9269,0.011 -11.4741,-0.633 -15.6089,-2.8302 -19.3432,-10.27875 -24.9667,-33.31855 -12.2173,-50.05541 4.1309,-5.42296 11.2724,-10.34366 17.9014,-12.3347 2.6148,-0.78535 3,-0.41836 3,2.85774 0,3.10888 -1.065,4.32383 -6.1597,7.02658 -19.3589,10.26985 -17.6124,38.32623 2.8729,46.14969 12.566,4.7989 25.9744,-0.6102 31.5298,-12.71964 2.6069,-5.68245 3.634,-6.7024 6.7492,-6.7024 2.021,0 3.6745,0.56095 3.6745,1.24653 0,2.92018 -3.5105,10.00602 -15.0672,30.41301 -11.8669,20.9547 -12.4059,21.6599 -16.5576,21.6668 l -4.2915,0.01 4.8042,-8.3334 z m 103.77882,5.8257 c -6.34381,-2.913 -9.18662,-5.8865 -11.94922,-12.4983 -2.92361,-6.9972 -2.63881,-8.9941 1.2825,-8.9941 2.2839,0 3.33491,0.7347 3.33831,2.3333 0.013,3.9108 4.9644,10.7434 9.49041,13.0839 8.58422,4.439 21.57184,-0.061 25.15708,-8.7159 1.2262,-2.9603 2.5536,-4.0346 4.9854,-4.0346 2.4744,0 3.1092,0.5344 2.5049,2.109 -0.4452,1.16 -0.8093,2.6391 -0.8093,3.287 0,2.5603 -8.94124,11.1577 -13.98864,13.4507 -6.79942,3.0889 -13.25373,3.0822 -20.01144,-0.021 z m 111.33338,-5.4923 v -8.0001 h -23.1701 c -24.7655,0 -27.3964,-0.6808 -25.5168,-6.6027 0.8309,-2.6182 1.8509,-2.7306 24.7768,-2.7306 h 23.9101 v -20.66675 -20.66667 h 4.6667 4.6666 v 20.66667 20.66675 h 6.6667 6.6667 v 4.6666 4.6667 h -6.6667 -6.6667 v 8.0001 8 h -4.6666 -4.6667 z m 95.3333,5.4923 c -6.3437,-2.913 -9.1865,-5.8865 -11.9492,-12.4983 -2.9236,-6.9972 -2.6388,-8.9941 1.2826,-8.9941 2.2838,0 3.3349,0.7347 3.3382,2.3333 0.013,3.9108 4.9644,10.7434 9.4904,13.0839 8.5843,4.439 21.5719,-0.061 25.1571,-8.7159 1.2261,-2.9603 2.5536,-4.0346 4.9853,-4.0346 2.4744,0 3.1092,0.5344 2.505,2.109 -0.4452,1.16 -0.8094,2.6391 -0.8094,3.287 0,2.5603 -8.9412,11.1577 -13.9885,13.4507 -6.7995,3.0889 -13.2537,3.0822 -20.0115,-0.021 z m 96.6667,-36.27895 V 957.162 l -9.8041,8.77462 c -9.5946,8.58707 -9.8542,8.7193 -12.1471,6.18568 -2.5668,-2.83622 -3.9799,-1.20512 19.5971,-22.6212 10.6122,-9.63966 10.3541,-10.65 10.3541,40.52545 v 44.70865 h -4 -4 z m -1612.0144,8.08525 c -1.9768,-4.77242 -7.4777,-8.99715 -13.2068,-10.14297 -3.4038,-0.68075 -4.1122,-1.45732 -4.1122,-4.50739 0,-3.18984 0.659,-3.80859 4.9051,-4.60516 5.3029,-0.99483 13.7615,-8.31534 13.7615,-11.9099 0,-1.38666 1.1667,-2.13333 3.3334,-2.13333 1.8333,0 3.3333,0.61927 3.3333,1.37616 0,3.50629 -4.053,10.43139 -8.0963,13.8336 l -4.4589,3.75191 3.6483,2.65757 c 3.6175,2.63522 6.3792,6.93769 8.1612,12.71411 0.7852,2.5457 0.4315,3 -2.336,3 -2.373,0 -3.7167,-1.0991 -4.9326,-4.0346 z m 90.6666,0 c -1.9768,-4.77242 -7.4776,-8.99715 -13.2068,-10.14297 -3.4037,-0.68075 -4.1122,-1.45732 -4.1122,-4.50739 0,-3.18984 0.6591,-3.80859 4.9052,-4.60516 5.3029,-0.99483 13.7615,-8.31534 13.7615,-11.9099 0,-1.38666 1.1666,-2.13333 3.3333,-2.13333 1.8333,0 3.3333,0.61927 3.3333,1.37616 0,3.50629 -4.053,10.43139 -8.0962,13.8336 l -4.4589,3.75191 3.6482,2.65757 c 3.6176,2.63522 6.3793,6.93769 8.1612,12.71411 0.7853,2.5457 0.4315,3 -2.336,3 -2.3729,0 -3.7167,-1.0991 -4.9326,-4.0346 z m 1245.3335,0 c -1.97684,-4.77242 -7.47775,-8.99715 -13.20686,-10.14297 -3.4037,-0.68075 -4.1122,-1.45732 -4.1122,-4.50739 0,-3.18984 0.659,-3.80859 4.90521,-4.60516 5.30281,-0.99483 13.76145,-8.31534 13.76145,-11.9099 0,-1.38666 1.1667,-2.13333 3.3334,-2.13333 1.8333,0 3.3333,0.61927 3.3333,1.37616 0,3.50629 -4.0529,10.43139 -8.0963,13.8336 l -4.45894,3.75191 3.64834,2.65757 c 3.6176,2.63522 6.3793,6.93769 8.1612,12.71411 0.7853,2.5457 0.4316,3 -2.336,3 -2.373,0 -3.7167,-1.0991 -4.9326,-4.0346 z m 206.6667,0 c -1.9768,-4.77242 -7.4777,-8.99715 -13.2068,-10.14297 -3.4037,-0.68075 -4.1123,-1.45732 -4.1123,-4.50739 0,-3.18984 0.6591,-3.80859 4.9052,-4.60516 5.3028,-0.99483 13.7615,-8.31534 13.7615,-11.9099 0,-1.38666 1.1667,-2.13333 3.3333,-2.13333 1.8334,0 3.3334,0.61927 3.3334,1.37616 0,3.50629 -4.053,10.43139 -8.0963,13.8336 l -4.4589,3.75191 3.6482,2.65757 c 3.6176,2.63522 6.3794,6.93769 8.1612,12.71411 0.7854,2.5457 0.4316,3 -2.336,3 -2.3729,0 -3.7166,-1.0991 -4.9325,-4.0346 z m -163.1303,-2.9654 c 0.5571,-0.9166 9.9154,-14.07564 20.7962,-29.24216 l 19.7833,-27.57548 3.8479,2.20833 c 2.1492,1.23351 3.451,2.85119 2.9492,3.66464 -0.4943,0.80096 -9.2171,12.96617 -19.3839,27.03381 l -18.4852,25.57746 h -5.2601 c -3.8595,0 -4.9906,-0.4438 -4.2474,-1.6666 z m -1459.2556,-14.60002 c -0.88,-0.88 -1.6,-2.86 -1.6,-4.4 0,-1.54 0.72,-3.52 1.6,-4.4 0.88,-0.88 2.86,-1.6 4.4,-1.6 1.54,0 3.52,0.72 4.4,1.6 0.88,0.88 1.6,2.86 1.6,4.4 0,1.54 -0.72,3.52 -1.6,4.4 -0.88,0.88 -2.86,1.60001 -4.4,1.60001 -1.54,0 -3.52,-0.72001 -4.4,-1.60001 z m 206.6667,0 c -0.88,-0.88 -1.6,-2.86 -1.6,-4.4 0,-1.54 0.72,-3.52 1.6,-4.4 0.88,-0.88 2.86,-1.6 4.4,-1.6 1.54,0 3.52,0.72 4.4,1.6 0.88,0.88 1.6,2.86 1.6,4.4 0,1.54 -0.72,3.52 -1.6,4.4 -0.88,0.88 -2.86,1.60001 -4.4,1.60001 -1.54,0 -3.52,-0.72001 -4.4,-1.60001 z m 1129.3334,0 c -3.74,-3.74 -0.9223,-10.4 4.4,-10.4 3.574,0 6,2.42606 6,6 0,3.57395 -2.426,6.00001 -6,6.00001 -1.54,0 -3.52,-0.72001 -4.4,-1.60001 z m 206.6667,0 c -3.74,-3.74 -0.9222,-10.4 4.4,-10.4 3.574,0 6,2.42606 6,6 0,3.57395 -2.426,6.00001 -6,6.00001 -1.54,0 -3.52,-0.72001 -4.4,-1.60001 z m -2164.2291,-7.86444 c 3.5721,-12.45541 12.4212,-23.31433 23.6795,-29.0579 7.608,-3.88132 21.3694,-5.84307 28.9971,-4.13367 16.908,3.78917 30.6872,16.50301 35.0312,32.32268 1.348,4.90909 1.3054,5 -2.3385,5 -3.1608,0 -4.0455,-0.87495 -5.9641,-5.89887 -3.9236,-10.27357 -9.1979,-16.15189 -18.6813,-20.82057 -8.0416,-3.95888 -9.5164,-4.24947 -18.6067,-3.66608 -7.4941,0.48093 -11.3256,1.48491 -15.9019,4.16683 -7.9032,4.63154 -14.9266,12.98144 -17.0942,20.3226 -1.5907,5.38741 -2.1104,5.89609 -6.0234,5.89609 -4.1546,0 -4.2471,-0.12333 -3.0977,-4.13111 z m 937.3333,0 c 3.5721,-12.45541 12.4212,-23.31433 23.6795,-29.0579 7.608,-3.88132 21.3694,-5.84307 28.9971,-4.13367 16.908,3.78917 30.6873,16.50301 35.0312,32.32268 1.348,4.90909 1.3055,5 -2.3384,5 -3.1609,0 -4.0455,-0.87495 -5.9642,-5.89887 -3.9235,-10.27357 -9.1978,-16.15189 -18.6813,-20.82057 -8.0416,-3.95888 -9.5164,-4.24947 -18.6067,-3.66608 -7.4941,0.48093 -11.3256,1.48491 -15.9019,4.16683 -7.9032,4.63154 -14.9266,12.98144 -17.0942,20.3226 -1.5907,5.38741 -2.1104,5.89609 -6.0234,5.89609 -4.1546,0 -4.2471,-0.12333 -3.0977,-4.13111 z m 400,0 c 3.5721,-12.45541 12.4212,-23.31433 23.6795,-29.0579 7.608,-3.88132 21.3694,-5.84307 28.997,-4.13367 16.9082,3.78917 30.6874,16.50301 35.0314,32.32268 1.348,4.90909 1.3054,5 -2.3384,5 -3.161,0 -4.0456,-0.87495 -5.9643,-5.89887 -3.9235,-10.27357 -9.1979,-16.15189 -18.6812,-20.82057 -8.0417,-3.95888 -9.5165,-4.24947 -18.6068,-3.66608 -7.4941,0.48093 -11.3256,1.48491 -15.9019,4.16683 -7.9032,4.63154 -14.9266,12.98144 -17.0941,20.3226 -1.5908,5.38741 -2.1104,5.89609 -6.0235,5.89609 -4.1545,0 -4.247,-0.12333 -3.0977,-4.13111 z m -744.6518,-8.96329 c -1.2033,-5.47859 -7.9753,-13.05116 -14.0801,-15.74457 -4.3819,-1.93331 -5.3057,-2.99708 -5.3057,-6.1097 0,-3.42308 0.3363,-3.69292 3.6666,-2.94157 10.6572,2.40437 21.7145,13.65457 23.8083,24.22357 0.8178,4.12824 0.6662,4.33334 -3.2023,4.33334 -3.3705,0 -4.2012,-0.63932 -4.8868,-3.76107 z m 1336.0001,0 c -1.2034,-5.47859 -7.9754,-13.05116 -14.0802,-15.74457 -4.382,-1.93331 -5.3057,-2.99708 -5.3057,-6.1097 0,-3.42308 0.3364,-3.69292 3.6667,-2.94157 10.6572,2.40437 21.7144,13.65457 23.8082,24.22357 0.8178,4.12824 0.6663,4.33334 -3.2022,4.33334 -3.3706,0 -4.2012,-0.63932 -4.8868,-3.76107 z m -1268.7193,-3.61509 c 0,-2.99063 3.7473,-11.46036 6.3842,-14.43002 3.1082,-3.50028 12.0768,-7.46382 16.9492,-7.49044 11.4569,-0.0625 22.5784,7.30606 24.5967,16.29662 1.0432,4.6471 0.9073,5 -1.9259,5 -2.0603,0 -3.2955,-0.98439 -3.8106,-3.03695 -0.4192,-1.67032 -2.5562,-4.75571 -4.7489,-6.8564 -5.0831,-4.86991 -14.8539,-6.18153 -21.2828,-2.85701 -4.5258,2.3404 -9.4819,9.17302 -9.4902,13.08369 0,1.59867 -1.0545,2.33333 -3.3383,2.33333 -2.1052,0 -3.3334,-0.7527 -3.3334,-2.04282 z m 90.6667,0 c 0,-2.99063 3.7472,-11.46036 6.3842,-14.43002 3.1081,-3.50028 12.0768,-7.46382 16.9491,-7.49044 11.4569,-0.0625 22.5785,7.30606 24.5968,16.29662 1.0432,4.6471 0.9073,5 -1.926,5 -2.0602,0 -3.2954,-0.98439 -3.8106,-3.03695 -0.4192,-1.67032 -2.5562,-4.75571 -4.7488,-6.8564 -5.0831,-4.86991 -14.8539,-6.18153 -21.2828,-2.85701 -4.5259,2.3404 -9.4819,9.17302 -9.4902,13.08369 0,1.59867 -1.0545,2.33333 -3.3384,2.33333 -2.1051,0 -3.3333,-0.7527 -3.3333,-2.04282 z m 1245.33339,0 c 0,-2.99063 3.74721,-11.46036 6.38412,-14.43002 3.1083,-3.50028 12.07682,-7.46382 16.94923,-7.49044 11.45692,-0.0625 22.57846,7.30606 24.59676,16.29662 1.0433,4.6471 0.9073,5 -1.9259,5 -2.0603,0 -3.2955,-0.98439 -3.8107,-3.03695 -0.4192,-1.67032 -2.5561,-4.75571 -4.74884,-6.8564 -5.08301,-4.86991 -14.85383,-6.18153 -21.28284,-2.85701 -4.52581,2.3404 -9.48181,9.17302 -9.49021,13.08369 0,1.59867 -1.05441,2.33333 -3.33831,2.33333 -2.1051,0 -3.33331,-0.7527 -3.33331,-2.04282 z m 206.66671,0 c 0,-2.99063 3.7472,-11.46036 6.3842,-14.43002 3.1082,-3.50028 12.0768,-7.46382 16.9492,-7.49044 11.4569,-0.0625 22.5784,7.30606 24.5966,16.29662 1.0434,4.6471 0.9074,5 -1.9258,5 -2.0603,0 -3.2955,-0.98439 -3.8107,-3.03695 -0.4192,-1.67032 -2.5561,-4.75571 -4.7488,-6.8564 -5.0831,-4.86991 -14.8539,-6.18153 -21.2828,-2.85701 -4.5259,2.3404 -9.4819,9.17302 -9.4903,13.08369 0,1.59867 -1.0544,2.33333 -3.3382,2.33333 -2.1051,0 -3.3334,-0.7527 -3.3334,-2.04282 z m -1861.6047,-17.94875 2.2713,-3.99156 18.3333,-0.008 18.3333,-0.008 v 4 4 h -20.6046 -20.6047 z m 1336,0 2.2713,-3.99156 18.3333,-0.008 18.3334,-0.008 v 4 4 h -20.6047 -20.6047 l 2.2714,-3.99157 z M -3102.8568,562.4017 c -0.1871,-138.7833 -0.1871,-309.1833 -1e-4,-378.6667 l 0.3401,-126.333281 h 7.3266 7.3265 V 436.0684 814.73505 h -7.3264 -7.3265 z M -2050.5304,436.0684 V 57.401719 h 7.3266 7.3266 l 0.3401,126.333281 c 0.187,69.4834 0.187,239.8834 -10e-5,378.6667 l -0.3402,252.33335 h -7.3265 -7.3265 z m 509.2361,372.33332 c -0.053,-3.48334 -0.5496,-9.51212 -1.1026,-13.39731 -0.5528,-3.88519 -0.509,-7.3706 0.097,-7.74536 1.4314,-0.88464 1.3288,-119.42095 -0.1094,-126.85735 -0.6029,-3.1167 -0.5893,-5.6667 0.031,-5.6667 0.6193,0 1.1263,-98.4 1.1263,-218.6666 0,-120.2667 -0.507,-218.6667 -1.1263,-218.6667 -0.6195,0 -0.6331,-2.55 -0.031,-5.6667 1.4387,-7.4364 1.5414,-125.972681 0.1094,-126.857281 -0.6064,-0.3748 -0.6502,-3.8602 -0.097,-7.7454 0.553,-3.8851 1.049,-9.9139 1.1026,-13.3973 l 0.097,-6.3333 h 7.3333 7.3334 v 23 c 0,18.285205 9e-4,621.854381 0,712.000001 v 22.33333 h -7.3331 -7.3333 z m 596.09336,-74.33332 c 0,-44.3667 0,-178.4667 0,-298 0,-119.5334 0,-253.6334 0,-298 V 57.401719 h 7.33334 7.3334 l 0.097,6.3333 c 0.053,3.4834 0.5496,9.5122 1.1025,13.3973 0.5528,3.8852 0.5267,7.3597 -0.059,7.7212 -1.4268,0.8846 -1.3859,569.881481 0.045,569.881481 0.6194,0 0.6327,2.55 0.029,5.6667 -1.4387,7.4364 -1.5414,125.97271 -0.1094,126.85735 0.6064,0.37476 0.6502,3.86017 0.097,7.74536 -0.553,3.88519 -1.049,9.91397 -1.1026,13.39731 l -0.097,6.33333 h -7.3319 -7.33334 V 734.0684 Z"
         id="path82" />
      <path
         style="fill:#606060;fill-opacity:1;stroke-width:1.33333"
         d="m -1382.5303,1660.8984 c 0,-0.2768 1.05,-1.3268 2.3333,-2.3333 2.1148,-1.6584 2.1619,-1.6114 0.5035,0.5034 -1.7419,2.221 -2.8368,2.9274 -2.8368,1.8299 z m 290.4965,-1.8299 c -1.6584,-2.1148 -1.6113,-2.1618 0.5035,-0.5034 1.2833,1.0065 2.3333,2.0565 2.3333,2.3333 0,1.0975 -1.0949,0.3911 -2.8368,-1.8299 z m 16.2753,-29.111 c 0.064,-1.5534 0.38,-1.8692 0.8056,-0.8056 0.3852,0.9625 0.3379,2.1125 -0.1053,2.5556 -0.4431,0.443 -0.7583,-0.3446 -0.7004,-1.75 z m 20.9782,-21.4664 c 0.9625,-0.3852 2.1125,-0.3379 2.5556,0.1053 0.443,0.4431 -0.3446,0.7583 -1.75,0.7004 -1.5534,-0.064 -1.8692,-0.38 -0.8056,-0.8056 z m -394.4167,-14.2594 c 0,-0.2768 1.05,-1.3268 2.3333,-2.3333 2.1148,-1.6584 2.1619,-1.6113 0.5035,0.5035 -1.7419,2.2209 -2.8368,2.9273 -2.8368,1.8298 z m 423.8299,-1.8298 c -1.6584,-2.1148 -1.6114,-2.1619 0.5034,-0.5035 1.2834,1.0065 2.3334,2.0565 2.3334,2.3333 0,1.0975 -1.095,0.3911 -2.8368,-1.8298 z m -1734.3913,-81.1111 c 0.064,-1.5533 0.3799,-1.8692 0.8055,-0.8056 0.3852,0.9625 0.3378,2.1125 -0.1052,2.5556 -0.443,0.4431 -0.7582,-0.3445 -0.7003,-1.75 z m 372,-9.3333 c 0.064,-1.5534 0.3799,-1.8692 0.8055,-0.8056 0.3852,0.9625 0.3378,2.1125 -0.1052,2.5556 -0.443,0.443 -0.7582,-0.3446 -0.7003,-1.75 z m -363.8948,-1.889 c 0,-1.8333 0.3027,-2.5833 0.6726,-1.6666 0.3698,0.9166 0.3698,2.4166 0,3.3333 -0.3699,0.9167 -0.6726,0.1667 -0.6726,-1.6667 z m 0,-13.3333 c 0,-1.8333 0.3027,-2.5833 0.6726,-1.6667 0.3698,0.9167 0.3698,2.4167 0,3.3334 -0.3699,0.9166 -0.6726,0.1666 -0.6726,-1.6667 z m 363.8948,-2.1111 c 0.064,-1.5533 0.3799,-1.8692 0.8055,-0.8056 0.3852,0.9626 0.3378,2.1126 -0.1052,2.5556 -0.443,0.4431 -0.7582,-0.3445 -0.7003,-1.75 z m -372,-9.3333 c 0.064,-1.5533 0.3799,-1.8692 0.8055,-0.8056 0.3852,0.9625 0.3378,2.1125 -0.1052,2.5556 -0.443,0.4431 -0.7582,-0.3445 -0.7003,-1.75 z m 1311.7246,-113.5556 c -1.6584,-2.1148 -1.6113,-2.1619 0.5035,-0.5034 2.2209,1.7418 2.9273,2.8367 1.8298,2.8367 -0.2768,0 -1.3268,-1.05 -2.3333,-2.3333 z m 421.5035,1.8299 c 0,-0.2769 1.05,-1.3269 2.3333,-2.3333 2.1148,-1.6585 2.1619,-1.6114 0.5035,0.5034 -1.7419,2.221 -2.8368,2.9273 -2.8368,1.8299 z m -1561.5834,-60.4074 c 0.9625,-0.3852 2.1125,-0.3378 2.5556,0.1052 0.443,0.4431 -0.3445,0.7582 -1.75,0.7003 -1.5533,-0.064 -1.8692,-0.3799 -0.8056,-0.8055 z m 36,0 c 0.9625,-0.3852 2.1125,-0.3378 2.5556,0.1052 0.443,0.4431 -0.3445,0.7582 -1.75,0.7003 -1.5533,-0.064 -1.8692,-0.3799 -0.8056,-0.8055 z m 1170.7466,-8.0892 c -1.6584,-2.1147 -1.6114,-2.1619 0.5034,-0.5034 1.2834,1.0065 2.3334,2.0565 2.3334,2.3333 0,1.0974 -1.095,0.3911 -2.8368,-1.8299 z m 288.1701,1.8299 c 0,-0.2768 1.05,-1.3268 2.3333,-2.3333 2.1148,-1.6585 2.1619,-1.6113 0.5035,0.5034 -1.7419,2.221 -2.8368,2.9273 -2.8368,1.8299 z"
         id="path80" />
      <path
         style="fill:#494949;fill-opacity:1;stroke-width:1.33333"
         d="m -1074.4251,1620.6241 c 0.064,-1.5533 0.38,-1.8692 0.8056,-0.8056 0.3852,0.9626 0.3378,2.1126 -0.1054,2.5556 -0.443,0.4431 -0.7582,-0.3445 -0.7004,-1.75 z m 10.3114,-10.7997 c 0.9626,-0.3852 2.1126,-0.3379 2.5556,0.1053 0.4431,0.4431 -0.3445,0.7583 -1.75,0.7004 -1.5533,-0.064 -1.8692,-0.38 -0.8056,-0.8056 z m -357.3333,-1.3333 c 0.9625,-0.3852 2.1125,-0.3379 2.5556,0.1053 0.4431,0.4431 -0.3445,0.7583 -1.75,0.7004 -1.5533,-0.064 -1.8692,-0.38 -0.8056,-0.8056 z m 345.6885,-286.5337 c 0.064,-1.5533 0.38,-1.8692 0.8056,-0.8055 0.3852,0.9624 0.3379,2.1125 -0.1053,2.5555 -0.4431,0.4431 -0.7583,-0.3444 -0.7004,-1.75 z m -466.3722,-513.88902 c 0,-4.03333 0.2498,-5.68333 0.5554,-3.66666 0.3055,2.01666 0.3055,5.31666 0,7.33333 -0.3056,2.01667 -0.5554,0.36667 -0.5554,-3.66667 z m 612.0001,0 c 0,-4.03333 0.2498,-5.68333 0.5554,-3.66666 0.3055,2.01666 0.3055,5.31666 0,7.33333 -0.3056,2.01667 -0.5554,0.36667 -0.5554,-3.66667 z m -611.7857,-82.66668 c 0,-33.3667 0.1732,-47.0167 0.3846,-30.3333 0.2116,16.6833 0.2116,43.9833 0,60.66665 -0.2114,16.68333 -0.3846,3.03333 -0.3846,-30.33335 z m 612.0001,0 c 0,-33.3667 0.1732,-47.0167 0.3846,-30.3333 0.2116,16.6833 0.2116,43.9833 0,60.66665 -0.2114,16.68333 -0.3846,3.03333 -0.3846,-30.33335 z M -1541.9103,584.735 c 2e-4,-38.1333 0.1709,-53.5412 0.3792,-34.2398 0.2082,19.3015 0.2081,50.5015 -4e-4,69.3333 -0.2086,18.832 -0.379,3.0399 -0.3788,-35.0935 z m 612.0001,0 c 2e-4,-38.1333 0.1709,-53.5412 0.3792,-34.2398 0.2082,19.3015 0.2081,50.5015 -4e-4,69.3333 -0.2086,18.832 -0.379,3.0399 -0.3788,-35.0935 z m -611.9997,-148.6666 c 0,-38.5 0.1704,-54.25 0.3786,-35 0.2082,19.25 0.2082,50.75 0,70 -0.2082,19.25 -0.3786,3.5 -0.3786,-35 z m 612.0001,0 c 0,-38.5 0.1704,-54.25 0.3786,-35 0.2082,19.25 0.2082,50.75 0,70 -0.2082,19.25 -0.3786,3.5 -0.3786,-35 z m -612.0005,-148.6667 c 2e-4,-38.1333 0.1709,-53.5413 0.3792,-34.2398 0.2082,19.3014 0.2081,50.5014 -4e-4,69.3333 -0.2086,18.8319 -0.379,3.0398 -0.3788,-35.0935 z m 612.0001,0 c 2e-4,-38.1333 0.1709,-53.5413 0.3792,-34.2398 0.2082,19.3014 0.2081,50.5014 -4e-4,69.3333 -0.2086,18.8319 -0.379,3.0398 -0.3788,-35.0935 z M -1541.9163,146.735 c 0,-33.36659 0.1732,-47.016576 0.3846,-30.3333 0.2116,16.6833 0.2116,43.9833 0,60.6667 -0.2114,16.6833 -0.3846,3.0333 -0.3846,-30.3334 z m 612.0001,0 c 0,-33.36659 0.1732,-47.016576 0.3846,-30.3333 0.2116,16.6833 0.2116,43.9833 0,60.6667 -0.2114,16.6833 -0.3846,3.0333 -0.3846,-30.3334 z m -612.2145,-82.666581 c 0,-4.0334 0.2498,-5.6834 0.5554,-3.6667 0.3055,2.0167 0.3055,5.3167 0,7.3333 -0.3056,2.0167 -0.5554,0.3667 -0.5554,-3.6666 z m 612.0001,0 c 0,-4.0334 0.2498,-5.6834 0.5554,-3.6667 0.3055,2.0167 0.3055,5.3167 0,7.3333 -0.3056,2.0167 -0.5554,0.3667 -0.5554,-3.6666 z"
         id="path78" />
    </g>
  </g>
</svg>
